<?xml version="1.0" encoding="UTF-8"?>
<svg id="_레이어_2" data-name="레이어 2" xmlns="http://www.w3.org/2000/svg" viewBox="0 0 47 47">
  <defs>
    <style>
      .cls-1 {
        fill: #17a34a;
      }

      .cls-1, .cls-2 {
        stroke-width: 0px;
      }

      .cls-2 {
        fill: #fff;
      }
    </style>
  </defs>
  <g id="_레이어_1-2" data-name="레이어 1">
    <circle class="cls-1" cx="23.5" cy="23.5" r="23.5"/>
    <g>
      <path class="cls-2" d="m31.92,17.11s-5.62-2.71-9.13-3.5c-3.52-.77-5.58,2.61-5.58,2.61l-.71,2.43c.32.1.65.2.99.32,6.33,2.04,12.02,4.39,16.13,6.54.2-.47.45-1.07.75-1.88,1.52-3.93-2.45-6.52-2.45-6.52Zm-7.39,1.62c-.08.18-.3.26-.49.18l-2.75-1.21c-.18-.08-.26-.3-.18-.49s.3-.26.49-.18l2.75,1.21c.18.08.26.3.18.49Zm5.24,2.87c-.08.18-.3.26-.49.18l-1.92-.85c-.18-.08-.26-.3-.18-.49s.3-.26.49-.18l1.92.85c.18.08.26.3.18.49Z"/>
      <path class="cls-2" d="m39.61,29.56c-2.69-2.83-11.47-7.08-22.07-10.5-10.6-3.42-11.43-1.19-11.43-1.19,0,0-1.82.63,5.75,5.83,7.57,5.2,21.49,9.61,25.43,9.79,3.93.18,5.02-1.09,2.33-3.93Zm-15.54-2.04c-4.86-2-8.01-3.18-8.28-5.18,0,0,.36-1.46,5.65.61,5.28,2.06,9.43,3.95,10.02,5.1.57,1.17-2.53,1.48-7.39-.53Zm11.07,2.1c-.08.14-.26.2-.4.1l-1.05-.61c-.14-.08-.2-.26-.1-.4.08-.14.26-.2.4-.1l1.05.61c.14.06.18.26.1.4Z"/>
    </g>
  </g>
</svg><?xml version="1.0" encoding="UTF-8"?>
<svg id="_레이어_2" data-name="레이어 2" xmlns="http://www.w3.org/2000/svg" viewBox="0 0 47 47">
  <defs>
    <style>
      .cls-1 {
        fill: #17a34a;
      }

      .cls-1, .cls-2 {
        stroke-width: 0px;
      }

      .cls-2 {
        fill: #fff;
      }
    </style>
  </defs>
  <g id="_레이어_1-2" data-name="레이어 1">
    <circle class="cls-1" cx="23.5" cy="23.5" r="23.5"/>
    <g>
      <path class="cls-2" d="m31.92,17.11s-5.62-2.71-9.13-3.5c-3.52-.77-5.58,2.61-5.58,2.61l-.71,2.43c.32.1.65.2.99.32,6.33,2.04,12.02,4.39,16.13,6.54.2-.47.45-1.07.75-1.88,1.52-3.93-2.45-6.52-2.45-6.52Zm-7.39,1.62c-.08.18-.3.26-.49.18l-2.75-1.21c-.18-.08-.26-.3-.18-.49s.3-.26.49-.18l2.75,1.21c.18.08.26.3.18.49Zm5.24,2.87c-.08.18-.3.26-.49.18l-1.92-.85c-.18-.08-.26-.3-.18-.49s.3-.26.49-.18l1.92.85c.18.08.26.3.18.49Z"/>
      <path class="cls-2" d="m39.61,29.56c-2.69-2.83-11.47-7.08-22.07-10.5-10.6-3.42-11.43-1.19-11.43-1.19,0,0-1.82.63,5.75,5.83,7.57,5.2,21.49,9.61,25.43,9.79,3.93.18,5.02-1.09,2.33-3.93Zm-15.54-2.04c-4.86-2-8.01-3.18-8.28-5.18,0,0,.36-1.46,5.65.61,5.28,2.06,9.43,3.95,10.02,5.1.57,1.17-2.53,1.48-7.39-.53Zm11.07,2.1c-.08.14-.26.2-.4.1l-1.05-.61c-.14-.08-.2-.26-.1-.4.08-.14.26-.2.4-.1l1.05.61c.14.06.18.26.1.4Z"/>
    </g>
  </g>
</svg>