<?xml version="1.0" encoding="utf-8"?>
<!-- Generator: Adobe Illustrator 27.9.1, SVG Export Plug-In . SVG Version: 6.00 Build 0)  -->
<svg version="1.1" id="레이어_1" xmlns="http://www.w3.org/2000/svg" xmlns:xlink="http://www.w3.org/1999/xlink" x="0px"
	 y="0px" viewBox="0 0 352.7 174.8" style="enable-background:new 0 0 352.7 174.8;" xml:space="preserve">
<style type="text/css">
	.st0{fill:none;stroke:#000000;stroke-width:3;stroke-miterlimit:10;}
	.st1{fill:none;stroke:#000000;stroke-width:4;stroke-miterlimit:10;}
	.st2{fill:none;stroke:#000000;stroke-width:4;stroke-linecap:round;stroke-linejoin:round;stroke-miterlimit:10;}
	.st3{fill:#17A34A;}
	.st4{fill:#FFFFFF;}
</style>
<g>
	<g>
		<g>
			<path d="M224.6,520.5c-0.2,0.6-1,1.2-2.2,2c-1.3,0.7-2.4,1.1-3.2,1.1c-4.6-0.4-9.2-0.7-13.7-1s-9.2-0.5-13.9-0.6
				c0.6,3.3,1.3,6.5,1.8,9.8c0.6,3.3,1.1,6.5,1.7,9.8c9.1-0.3,18.1-0.7,26.9-1.3c1.5,0,3,0.4,4.5,1.3c1.5,0.8,2.2,1.6,2.2,2.4
				c0,1-0.5,1.9-1.4,2.7c-1,0.8-2.1,1.3-3.5,1.5c-4.5,0.7-9,1.1-13.5,1.5c-4.5,0.3-9.2,0.6-13.9,0.8c0.5,3.3,1,6.5,1.4,9.7
				c0.4,3.2,0.7,6.4,1,9.6c0.2,1.3,0.1,2.7-0.4,4.1c-0.5,1.4-1.3,2.2-2.3,2.2s-1.9-0.2-2.7-0.7c-0.9-0.5-1.6-1-2.3-1.6
				c-0.7-0.6-1.3-1.3-1.7-2s-0.7-1.4-0.8-2c-1.1-8-2.2-16-3.4-23.9c-1.2-7.9-2.6-15.9-4.1-23.9h-5.3c-1.5,0-2.9-0.1-4.2-0.4
				s-2.2-1-2.9-2.1c-0.2-0.3-0.3-0.7-0.4-1.4c-0.1-0.7,0-1.3,0.2-2s0.5-1.3,0.9-1.8c0.4-0.6,1-0.9,1.8-1.1c4.2-0.6,8.6-0.8,13.4-0.7
				c4.8,0.1,9.4,0.3,13.9,0.8c4.5,0.4,8.8,1,12.8,1.7c4,0.7,7.5,1.5,10.3,2.4C223.4,518.3,224.4,519.3,224.6,520.5z"/>
			<path d="M256,568.9c0.1,0.4,0.2,0.9,0.2,1.6s-0.2,1.4-0.5,2.1s-0.8,1.3-1.4,1.8c-0.6,0.5-1.4,0.8-2.5,0.8c-2.4-1.3-4.3-3-5.9-5.2
				c-0.9-2.8-1.6-6-2.3-9.6c-0.7-3.6-1.3-7.4-1.7-11.4s-0.7-8-0.9-12.1c-0.2-4.1-0.2-8.1-0.1-11.9c0-0.7,0.1-1.5,0.2-2.5
				c0.2-1,0.5-2,0.9-3s1-1.8,1.6-2.5s1.5-1,2.7-1c1.4,0,2.5,0.4,3.4,1.1s1.3,2,1.3,3.6c-0.1,3.7-0.1,7.7,0.1,11.9
				c0.2,4.2,0.5,8.5,0.9,12.8c0.4,4.3,1,8.5,1.7,12.5C254.4,562,255.2,565.6,256,568.9z"/>
			<path d="M333,523.6c-0.7,7.9-1.6,16-2.6,24.2s-2.4,16-4.1,23.3c-0.4,1.8-1,3-1.8,3.8c-0.7,0.7-1.8,1.3-3.2,1.5
				c-1.2,0.2-2.8-0.1-4.9-1c-2.1-0.8-3.8-2-5.2-3.6c-1.8-2.1-3.8-4.5-5.8-7.1c-2.1-2.6-4.3-5.2-6.7-7.8c-2.4-2.6-4.9-5.3-7.5-7.9
				c-2.6-2.6-5.4-5-8.3-7.3c-0.3,6.1-0.6,12.2-0.8,18.2s-0.2,12,0,18.1c0,0.8-0.9,1.3-2.6,1.3c-2,0-3.7-0.9-5-2.7s-2-3.7-2.2-5.5
				c-0.3-1.9-0.5-4.5-0.5-8s0.1-7.1,0.2-11c0.2-3.8,0.3-7.5,0.6-11c0.2-3.5,0.4-6.3,0.6-8.4c0.2-2.2,0.8-3.9,1.8-4.9s2-1.5,3-1.4
				c2.1,0.2,3.6,0.7,4.2,1.6c0.7,0.9,1.1,2,1.2,3.3c3.8,2.4,7.4,5,10.7,7.8s6.2,5.6,9,8.5c2.7,2.9,5.2,5.8,7.5,8.6
				c2.3,2.8,4.5,5.4,6.5,7.8c1.3-5.6,2.3-11.8,3.1-18.7c0.8-6.9,1.6-14.1,2.5-21.7c-0.1-0.9,0.5-1.8,1.9-2.7
				c1.4-0.9,2.7-1.3,3.8-1.2C331.5,519.9,333,521.2,333,523.6z"/>
			<path d="M392.3,546.1c0.4,0.9,0,1.8-1.3,2.7c-1.3,0.9-3.3,1.5-6.1,1.7c-4.8,0.6-9.7,1.1-14.7,1.7c-5,0.6-10.2,1.2-15.4,1.9
				c-0.2,4.8-0.2,9.5,0,14.3c2.5,0,5.4-0.2,8.9-0.6c3.5-0.4,7-1,10.7-1.6c3.6-0.7,7.1-1.3,10.5-2s6.2-1.3,8.6-1.7
				c1.2-0.3,2.4-0.5,3.7-0.6s2.4-0.1,3.4,0s1.8,0.5,2.5,1s1,1.4,1,2.4c0,0.3-0.4,0.7-1.1,1.3c-0.7,0.6-1.7,1.1-2.8,1.7
				c-1.1,0.6-2.3,1.2-3.5,1.7s-2.3,0.9-3.3,1.2c-6.6,1.9-13.1,3.5-19.6,4.8c-6.4,1.4-12.7,2.1-18.7,2.2c-3.5,0.1-6.2-0.7-8-2.4
				c-1.8-1.7-2.8-4.2-2.9-7.5c-0.2-4.6-0.2-9.2,0-13.8c-1.8-0.9-2.7-2.2-2.7-3.9c0.2-1.8,1.2-3,2.9-3.6c0.2-2.7,0.4-5.4,0.5-8.2
				c0.1-2.7,0.3-5.5,0.5-8.2c-1.2-0.2-2.2-0.7-3.1-1.5c-0.9-0.8-1.4-1.8-1.4-2.8c0-0.8,0.2-1.6,0.6-2.3c0.4-0.7,1.2-1.2,2.4-1.6
				c1.9-0.4,4.3-0.8,7.1-1.3s5.6-0.9,8.6-1.3c2.9-0.4,5.8-0.7,8.5-1c2.7-0.3,5-0.5,7-0.6c2.2-0.2,4.4,0,6.5,0.6
				c2.1,0.6,4,1.6,5.8,3.2c0.4,1.3,0.1,2.3-0.9,2.9c-1,0.7-2.3,1.1-3.9,1.3c-1.6,0.2-3.5,0.4-5.8,0.6c-2.2,0.2-4.6,0.5-7,0.8
				c-2.4,0.3-4.8,0.5-7.2,0.8c-2.4,0.2-4.7,0.5-6.8,0.8c0,0.2,0,0.4,0.1,0.6c0.1,0.2,0.1,0.4,0.1,0.6c-0.2,2.4-0.4,4.8-0.5,7.3
				c-0.1,2.4-0.2,4.8-0.3,7.3c4.5-0.7,9.1-1.2,13.8-1.7s8.4-0.9,11.2-1c2.2-0.2,4.4,0,6.6,0.7C388.6,543.4,390.5,544.5,392.3,546.1z
				"/>
		</g>
	</g>
	<g>
		<path d="M215.8,594.9c-0.2,0.4-0.7,0.8-1.6,1.4c-0.9,0.5-1.6,0.8-2.2,0.8c-3.2-0.3-6.4-0.5-9.6-0.7c-3.2-0.2-6.4-0.3-9.7-0.4
			c0.4,2.3,0.9,4.6,1.3,6.9c0.4,2.3,0.8,4.6,1.2,6.9c6.4-0.2,12.7-0.5,18.9-0.9c1,0,2.1,0.3,3.1,0.9c1,0.6,1.6,1.1,1.6,1.7
			c0,0.7-0.3,1.4-1,1.9c-0.7,0.6-1.5,0.9-2.5,1c-3.1,0.5-6.3,0.8-9.5,1s-6.4,0.4-9.7,0.5c0.4,2.3,0.7,4.6,1,6.8
			c0.3,2.3,0.5,4.5,0.7,6.7c0.1,0.9,0.1,1.9-0.3,2.9c-0.3,1-0.9,1.5-1.6,1.5c-0.7,0-1.3-0.2-1.9-0.5c-0.6-0.3-1.1-0.7-1.6-1.1
			s-0.9-0.9-1.2-1.4s-0.5-1-0.6-1.4c-0.7-5.6-1.6-11.2-2.4-16.7c-0.9-5.5-1.8-11.1-2.9-16.7h-3.7c-1,0-2-0.1-2.9-0.3s-1.6-0.7-2-1.5
			c-0.2-0.2-0.2-0.5-0.3-1c0-0.5,0-0.9,0.1-1.4s0.3-0.9,0.6-1.3c0.3-0.4,0.7-0.7,1.2-0.8c2.9-0.4,6-0.6,9.4-0.5
			c3.3,0.1,6.6,0.2,9.8,0.5s6.2,0.7,9,1.2s5.2,1.1,7.2,1.7C215,593.3,215.7,594,215.8,594.9z"/>
		<path d="M229.8,637.2c-0.4,1.1-0.9,2.1-1.5,3c-0.6,0.9-1.2,1.4-1.9,1.5c-1.4,0.3-2.5,0.1-3.3-0.6c-0.7-0.7-1-1.6-0.9-2.7
			c0.6-3.9,1.6-8,2.9-12.4c1.3-4.3,2.9-8.7,4.7-13c1.8-4.3,3.8-8.6,5.9-12.6c2.1-4.1,4.3-7.8,6.6-11.1c0.4-0.5,0.8-0.8,1.3-0.9
			s0.9-0.1,1.3,0c0.4-0.3,0.8-0.5,1.3-0.7c0.5-0.2,1-0.3,1.6-0.3c0.2,0,0.5,0,0.7,0.1c0.3,0.1,0.5,0.3,0.8,0.6s0.7,0.8,1.1,1.4
			c0.4,0.6,0.9,1.5,1.5,2.7c1,3.3,2.3,6.8,3.6,10.3c1.4,3.5,2.8,7.1,4.3,10.6c0.2-0.1,0.4-0.1,0.6-0.1c0.2,0,0.4-0.1,0.6-0.1
			c0.8-0.1,1.8,0,2.8,0.1c1,0.1,1.8,0.6,2.1,1.4c0.4,1,0.4,1.8-0.2,2.5c-0.6,0.7-1.7,1.4-3.3,2.2c1,2.1,1.9,4.1,2.9,6.1s2,3.9,3,5.8
			c0.1,0.3,0.2,0.8,0.3,1.5c0.1,0.7,0.2,1.4,0.3,2.1c0,0.7,0,1.3-0.2,1.9c-0.2,0.6-0.4,1-0.9,1.2c-0.5,0.2-1.1,0.2-1.6-0.1
			c-0.6-0.3-1.1-0.6-1.6-1c-0.5-0.4-1-0.9-1.4-1.4s-0.7-0.9-1-1.3c-1.3-2.2-2.5-4.3-3.6-6.5c-1.2-2.2-2.3-4.4-3.3-6.6
			c-3.1,0.5-6.6,1-10.3,1.4c-3.7,0.4-7.4,0.7-11,0.8c-0.8,2.5-1.6,4.9-2.4,7.3C231.2,632.4,230.4,634.8,229.8,637.2z M245.7,596
			c-3.4,6.7-6.4,13.5-9,20.2c5-0.1,10.4-0.7,16.1-1.7C250.1,608.6,247.7,602.4,245.7,596z"/>
		<path d="M284.4,635.5c-0.2-2.4-0.4-5.2-0.5-8.2c-0.1-3.1-0.2-6.2-0.2-9.5c0-3.2,0-6.4,0.1-9.5c0-3.1,0.1-6,0.3-8.5
			c0-0.7,0.4-1.2,1.1-1.5c0.7-0.4,1.3-0.5,1.7-0.4c1.3,0.1,2.3,0.5,2.8,1.2s0.8,1.6,1,2.9c-0.1,2.1-0.1,4.2-0.2,6.3
			c0,2.1,0,4.2,0.1,6.3c3.4-0.5,6.2-1.6,8.5-3.2c2.3-1.6,3.9-3.5,4.9-5.6c0.4-0.8,0.7-1.7,0.8-2.8c0.2-1.1,0.2-2.2,0.1-3.4
			c-0.2-1.1-0.5-2.2-1.1-3.2s-1.4-1.8-2.5-2.4c-1.6-0.8-3.4-1.3-5.4-1.4c-1.9-0.1-4,0.2-6,0.7c-2.1,0.6-4.1,1.4-6.1,2.6
			c-2,1.2-3.8,2.6-5.6,4.2c0.2,1,0.1,1.8-0.4,2.6s-1.3,1.3-2.2,1.6c-0.6,0.1-1.3-0.1-2.1-0.8s-1.2-1.4-1.2-2.1
			c0-2.6,0.8-4.9,2.5-6.8c1.7-1.9,3.8-3.5,6.3-4.8s5.3-2.3,8.2-2.9c2.9-0.7,5.6-1,8.1-1c3.7,0,6.7,0.9,9.2,2.8
			c2.5,1.9,4.2,4.2,5.1,7c1.6,4.9,1.2,9.3-1.2,13.2c-2.4,3.9-6.2,7.3-11.5,10.2c3.9,2.1,7.5,4.1,11,6c3.4,1.9,6.8,4,10.3,6.2
			c0.4,0.4,1,1,1.5,1.7c0.6,0.8,0.5,1.9-0.3,3.4c-0.4,0.9-1.2,1.4-2.3,1.5c-1.1,0.1-2.2-0.2-3.2-0.8c-1.6-1.2-3.5-2.4-5.6-3.7
			c-2.1-1.3-4.2-2.5-6.5-3.8c-2.2-1.3-4.5-2.5-6.7-3.7c-2.2-1.2-4.4-2.3-6.4-3.4c0.1,2.6,0.1,5.2,0.2,7.8c0,2.6,0.1,5.1,0.3,7.6
			c0,0.9-0.3,1.6-0.9,1.9c-0.6,0.4-1.3,0.5-2.2,0.5c-0.4-0.1-0.9-0.3-1.2-0.6c-0.4-0.4-0.7-0.8-1.1-1.3s-0.6-1-0.8-1.5
			S284.4,635.8,284.4,635.5z"/>
		<path d="M383.2,640.7c-0.8,0-1.7-0.6-2.5-1.7c-0.9-1.1-1.3-2.2-1.4-3.2c-0.6-3.8-1.3-8.2-2.2-13.3c-0.9-5.1-2-11.1-3.4-18
			c-2.2,3.7-4.5,7.4-6.6,11.1c-2.2,3.7-4.3,7.3-6.5,11c-1.3,2.3-2.7,3.4-4.2,3.4c-2.1,0-3.7-0.9-4.9-2.8c-2.6-3.3-5.3-6.4-8.1-9.4
			c-2.8-2.9-5.7-5.8-8.7-8.7c-0.2,4.4-0.1,8.7,0.2,12.9c0.3,4.2,0.7,8.3,1.4,12.3c0.1,0.7,0.1,1.4-0.3,1.9c-0.3,0.6-0.7,0.9-1.1,1
			c-1,0.3-2.1,0.1-3.1-0.6s-1.7-1.5-1.9-2.4c-0.7-2.4-1.2-5-1.5-7.8c-0.3-2.9-0.5-5.8-0.6-8.7c-0.1-2.9-0.2-5.8-0.2-8.7
			c0-2.9,0-5.5,0.1-7.8c0-2.6,1-3.9,2.9-3.9c1.2,0,2.2,0.4,3,1.1c0.8,0.8,1.3,1.8,1.3,3.2c3.7,3.3,7.3,6.6,10.6,10
			c3.3,3.4,6.6,6.9,9.7,10.4c2.6-4.1,5.3-8.3,8-12.7c2.7-4.3,5.7-8.6,9.1-12.7c0.1-0.7,0.6-1.5,1.2-2.2c0.7-0.8,1.4-1.3,2.2-1.5
			c0.8-0.3,1.7,0,2.6,0.9c0.9,0.8,1.5,1.8,1.8,2.9c1.3,6.6,2.4,13.2,3.3,19.8c0.9,6.6,1.9,13.2,2.8,19.8c0.1,1.2-0.1,2.3-0.8,3.1
			C384.8,640.3,384,640.7,383.2,640.7z"/>
		<path d="M408.2,628.8c0.1,0.3,0.1,0.6,0.1,1.1s-0.1,1-0.3,1.5s-0.5,0.9-1,1.3c-0.4,0.4-1,0.5-1.7,0.5c-1.6-0.9-3-2.1-4.2-3.6
			c-0.6-2-1.1-4.2-1.6-6.8c-0.5-2.5-0.9-5.2-1.2-8s-0.5-5.6-0.6-8.5c-0.1-2.9-0.1-5.6-0.1-8.3c0-0.5,0.1-1,0.2-1.8
			c0.1-0.7,0.3-1.4,0.6-2.1s0.7-1.3,1.1-1.8s1.1-0.7,1.9-0.7c1,0,1.8,0.3,2.4,0.8c0.6,0.5,0.9,1.4,0.9,2.5c-0.1,2.6-0.1,5.4,0.1,8.4
			c0.1,3,0.3,6,0.6,9s0.7,5.9,1.2,8.8C407.1,623.9,407.6,626.5,408.2,628.8z"/>
		<path d="M462,597c-0.5,5.6-1.1,11.2-1.9,17c-0.7,5.8-1.7,11.2-2.9,16.3c-0.3,1.2-0.7,2.1-1.2,2.6s-1.3,0.9-2.2,1.1
			c-0.8,0.1-2-0.1-3.4-0.7c-1.5-0.6-2.7-1.4-3.6-2.5c-1.3-1.5-2.6-3.1-4.1-4.9c-1.5-1.8-3-3.6-4.7-5.5c-1.7-1.9-3.4-3.7-5.3-5.5
			c-1.8-1.8-3.8-3.5-5.8-5.1c-0.2,4.3-0.4,8.6-0.6,12.8c-0.2,4.2-0.2,8.4,0,12.7c0,0.6-0.6,0.9-1.8,0.9c-1.4,0-2.6-0.6-3.5-1.9
			s-1.4-2.6-1.6-3.9c-0.2-1.3-0.3-3.2-0.3-5.6c0-2.4,0.1-5,0.2-7.7c0.1-2.7,0.2-5.3,0.4-7.7c0.1-2.5,0.3-4.4,0.4-5.9
			c0.1-1.6,0.6-2.7,1.3-3.4c0.7-0.7,1.4-1,2.1-1c1.5,0.1,2.5,0.5,3,1.1c0.5,0.6,0.8,1.4,0.8,2.3c2.7,1.7,5.2,3.5,7.5,5.5
			s4.4,4,6.3,6c1.9,2,3.7,4,5.3,6s3.1,3.8,4.5,5.4c0.9-3.9,1.6-8.3,2.2-13.1c0.6-4.8,1.1-9.9,1.7-15.2c-0.1-0.7,0.4-1.3,1.3-1.9
			c1-0.6,1.9-0.9,2.7-0.8C461,594.4,462,595.3,462,597z"/>
		<path d="M489.8,611.2c-0.4,0-0.8,0-1.4-0.1c-0.6-0.1-1.1-0.3-1.6-0.5s-0.9-0.5-1.3-0.9c-0.4-0.4-0.6-0.7-0.6-1.1
			c0-0.5,0.4-1.2,1.1-1.9c0.7-0.7,1.9-1.3,3.5-1.7c2.2-0.5,4.6-0.7,7.1-0.8c2.5-0.1,4.9-0.1,7.4,0c2.5,0.1,4.9,0.2,7.3,0.4
			c2.4,0.2,4.6,0.3,6.7,0.3c1.2,0,2,0.2,2.4,0.6c0.4,0.4,0.6,0.8,0.6,1.4c0,1.2-0.6,2.1-1.8,2.7c-1.2,0.7-2.4,0.9-3.6,0.9
			c-1.3-0.1-2.6-0.1-4-0.1s-2.8,0-4.3,0c0,1.8,0.1,3.9,0.3,6.1c0.2,2.3,0.4,4.5,0.6,6.8c0.2,2.3,0.5,4.5,0.7,6.6
			c0.3,2.1,0.5,3.9,0.7,5.3c0.1,0.5,0,1-0.4,1.4c-0.4,0.4-1,0.6-1.9,0.6c-1.6,0-2.7-0.8-3.5-2.5c-1.4-3.2-2.4-6.9-3-11
			c-4,2.2-8,3.5-11.9,4s-7.4,0.4-10.5-0.3c-3.1-0.8-5.6-2.1-7.5-3.9c-1.9-1.9-2.9-4.1-2.9-6.8c0-2.5,0.5-5.3,1.6-8.2
			c1-2.9,2.5-5.8,4.5-8.5c1.9-2.7,4.2-5.2,6.9-7.5c2.7-2.3,5.6-4,8.9-5.1c1.1-0.3,2.2-0.3,3.2-0.1c1,0.2,1.9,0.5,2.8,1
			c0.9,0.5,1.6,1.1,2.4,1.8c0.7,0.7,1.3,1.4,1.9,2c0.4,0.5,0.6,0.9,0.7,1.5c0.1,0.5-0.2,1-0.7,1.5c-1.1,0.7-2.1,0.7-2.9-0.2
			c-1.3-1.4-2.3-2.2-3.2-2.5s-2,0-3.5,0.8c-1.5,0.9-3.1,2.3-4.9,4.2c-1.8,1.9-3.5,3.9-5,6.2s-2.8,4.6-3.6,7
			c-0.9,2.4-1.2,4.6-0.9,6.6c0.2,1.8,1.3,3,3.4,3.8c2,0.8,4.3,1.1,6.9,1c2.6-0.1,5.2-0.5,7.7-1.3c2.5-0.8,4.6-1.8,6-3.1
			c-0.1-1.1-0.2-2.2-0.2-3.4c-0.1-1.1-0.1-2.3-0.1-3.4c-1.6,0.1-3.3,0.2-4.9,0.3C493.2,610.9,491.5,611,489.8,611.2z"/>
	</g>
	<g>
		<path class="st0" d="M389.9,510.7c0,0,1.8-7.2,27.9,3c26.1,10.2,46.6,19.5,49.5,25.2s-12.5,7.3-36.5-2.7
			C406.8,526.4,391.2,520.6,389.9,510.7z"/>
		<path class="st1" d="M393.3,492.5c1.6,0.5,3.2,1,4.9,1.6c31.3,10.1,59.4,21.7,79.7,32.3c1-2.3,2.2-5.3,3.7-9.3
			c7.4-19.3-12.2-32.2-12.2-32.2s-27.8-13.4-45.1-17.3c-17.3-3.9-27.5,12.9-27.5,12.9L393.3,492.5z"/>
		<path class="st1" d="M342,488.5c0,0,4.1-11.1,56.5,5.9s95.9,37.9,109.1,51.9s7.9,20.3-11.6,19.4c-19.5-0.9-88.4-22.7-125.7-48.4
			S342,488.5,342,488.5z"/>
		<line class="st2" x1="419.5" y1="480.5" x2="432.4" y2="485.4"/>
		<line class="st2" x1="479" y1="538.9" x2="486.4" y2="542.3"/>
		<line class="st2" x1="448.5" y1="502" x2="455.9" y2="505.4"/>
	</g>
</g>
<g>
	<g>
		<path d="M655.6,520.5c-0.2,0.6-1,1.2-2.2,2c-1.3,0.7-2.4,1.1-3.2,1.1c-4.6-0.4-9.2-0.7-13.7-1s-9.2-0.5-13.9-0.6
			c0.6,3.3,1.3,6.5,1.8,9.8c0.6,3.3,1.1,6.5,1.7,9.8c9.1-0.3,18.1-0.7,26.9-1.3c1.5,0,3,0.4,4.5,1.3c1.5,0.8,2.2,1.6,2.2,2.4
			c0,1-0.5,1.9-1.4,2.7c-1,0.8-2.1,1.3-3.5,1.5c-4.5,0.7-9,1.1-13.5,1.5c-4.5,0.3-9.2,0.6-13.9,0.8c0.5,3.3,1,6.5,1.4,9.7
			c0.4,3.2,0.7,6.4,1,9.6c0.2,1.3,0.1,2.7-0.4,4.1c-0.5,1.4-1.3,2.2-2.3,2.2s-1.9-0.2-2.7-0.7c-0.9-0.5-1.6-1-2.3-1.6
			c-0.7-0.6-1.3-1.3-1.7-2s-0.7-1.4-0.8-2c-1.1-8-2.2-16-3.4-23.9c-1.2-7.9-2.6-15.9-4.1-23.9h-5.3c-1.5,0-2.9-0.1-4.2-0.4
			s-2.2-1-2.9-2.1c-0.2-0.3-0.3-0.7-0.4-1.4c-0.1-0.7,0-1.3,0.2-2s0.5-1.3,0.9-1.8c0.4-0.6,1-0.9,1.8-1.1c4.2-0.6,8.6-0.8,13.4-0.7
			c4.8,0.1,9.4,0.3,13.9,0.8c4.5,0.4,8.8,1,12.8,1.7c4,0.7,7.5,1.5,10.3,2.4C654.4,518.3,655.4,519.3,655.6,520.5z"/>
		<path d="M687,568.9c0.1,0.4,0.2,0.9,0.2,1.6s-0.2,1.4-0.5,2.1s-0.8,1.3-1.4,1.8c-0.6,0.5-1.4,0.8-2.5,0.8c-2.4-1.3-4.3-3-5.9-5.2
			c-0.9-2.8-1.6-6-2.3-9.6c-0.7-3.6-1.3-7.4-1.7-11.4s-0.7-8-0.9-12.1c-0.2-4.1-0.2-8.1-0.1-11.9c0-0.7,0.1-1.5,0.2-2.5
			c0.2-1,0.5-2,0.9-3c0.4-1,1-1.8,1.6-2.5c0.6-0.7,1.5-1,2.7-1c1.4,0,2.5,0.4,3.4,1.1c0.9,0.7,1.3,2,1.3,3.6
			c-0.1,3.7-0.1,7.7,0.1,11.9s0.5,8.5,0.9,12.8c0.4,4.3,1,8.5,1.7,12.5C685.4,562,686.2,565.6,687,568.9z"/>
		<path d="M764,523.6c-0.7,7.9-1.6,16-2.6,24.2s-2.4,16-4.1,23.3c-0.4,1.8-1,3-1.8,3.8c-0.7,0.7-1.8,1.3-3.2,1.5
			c-1.2,0.2-2.8-0.1-4.9-1c-2.1-0.8-3.8-2-5.2-3.6c-1.8-2.1-3.8-4.5-5.8-7.1c-2.1-2.6-4.3-5.2-6.7-7.8c-2.4-2.6-4.9-5.3-7.5-7.9
			c-2.6-2.6-5.4-5-8.3-7.3c-0.3,6.1-0.6,12.2-0.8,18.2s-0.2,12,0,18.1c0,0.8-0.9,1.3-2.6,1.3c-2,0-3.7-0.9-5-2.7s-2-3.7-2.2-5.5
			c-0.3-1.9-0.5-4.5-0.5-8s0.1-7.1,0.2-11c0.2-3.8,0.3-7.5,0.6-11c0.2-3.5,0.4-6.3,0.6-8.4c0.2-2.2,0.8-3.9,1.8-4.9s2-1.5,3-1.4
			c2.1,0.2,3.6,0.7,4.2,1.6c0.7,0.9,1.1,2,1.2,3.3c3.8,2.4,7.4,5,10.7,7.8c3.3,2.8,6.2,5.6,9,8.5c2.7,2.9,5.2,5.8,7.5,8.6
			c2.3,2.8,4.5,5.4,6.5,7.8c1.3-5.6,2.3-11.8,3.1-18.7c0.8-6.9,1.6-14.1,2.5-21.7c-0.1-0.9,0.5-1.8,1.9-2.7c1.4-0.9,2.7-1.3,3.8-1.2
			C762.5,519.9,764,521.2,764,523.6z"/>
		<path d="M823.3,546.1c0.4,0.9,0,1.8-1.3,2.7c-1.3,0.9-3.3,1.5-6.1,1.7c-4.8,0.6-9.7,1.1-14.7,1.7c-5,0.6-10.2,1.2-15.4,1.9
			c-0.2,4.8-0.2,9.5,0,14.3c2.5,0,5.4-0.2,8.9-0.6c3.5-0.4,7-1,10.7-1.6c3.6-0.7,7.1-1.3,10.5-2c3.4-0.7,6.2-1.3,8.6-1.7
			c1.2-0.3,2.4-0.5,3.7-0.6c1.3-0.1,2.4-0.1,3.4,0s1.8,0.5,2.5,1s1,1.4,1,2.4c0,0.3-0.4,0.7-1.1,1.3c-0.7,0.6-1.7,1.1-2.8,1.7
			c-1.1,0.6-2.3,1.2-3.5,1.7s-2.3,0.9-3.3,1.2c-6.6,1.9-13.1,3.5-19.6,4.8c-6.4,1.4-12.7,2.1-18.7,2.2c-3.5,0.1-6.2-0.7-8-2.4
			c-1.8-1.7-2.8-4.2-2.9-7.5c-0.2-4.6-0.2-9.2,0-13.8c-1.8-0.9-2.7-2.2-2.7-3.9c0.2-1.8,1.2-3,2.9-3.6c0.2-2.7,0.4-5.4,0.5-8.2
			c0.1-2.7,0.3-5.5,0.5-8.2c-1.2-0.2-2.2-0.7-3.1-1.5c-0.9-0.8-1.4-1.8-1.4-2.8c0-0.8,0.2-1.6,0.6-2.3c0.4-0.7,1.2-1.2,2.4-1.6
			c1.9-0.4,4.3-0.8,7.1-1.3c2.8-0.5,5.6-0.9,8.6-1.3c2.9-0.4,5.8-0.7,8.5-1c2.7-0.3,5-0.5,7-0.6c2.2-0.2,4.4,0,6.5,0.6
			c2.1,0.6,4,1.6,5.8,3.2c0.4,1.3,0.1,2.3-0.9,2.9c-1,0.7-2.3,1.1-3.9,1.3c-1.6,0.2-3.5,0.4-5.8,0.6c-2.2,0.2-4.6,0.5-7,0.8
			c-2.4,0.3-4.8,0.5-7.2,0.8c-2.4,0.2-4.7,0.5-6.8,0.8c0,0.2,0,0.4,0.1,0.6c0.1,0.2,0.1,0.4,0.1,0.6c-0.2,2.4-0.4,4.8-0.5,7.3
			c-0.1,2.4-0.2,4.8-0.3,7.3c4.5-0.7,9.1-1.2,13.8-1.7c4.7-0.5,8.4-0.9,11.2-1c2.2-0.2,4.4,0,6.6,0.7
			C819.6,543.4,821.5,544.5,823.3,546.1z"/>
	</g>
</g>
<g>
	<path d="M646.8,594.9c-0.2,0.4-0.7,0.8-1.6,1.4c-0.9,0.5-1.6,0.8-2.2,0.8c-3.2-0.3-6.4-0.5-9.6-0.7c-3.2-0.2-6.4-0.3-9.7-0.4
		c0.4,2.3,0.9,4.6,1.3,6.9c0.4,2.3,0.8,4.6,1.2,6.9c6.4-0.2,12.7-0.5,18.9-0.9c1,0,2.1,0.3,3.1,0.9c1,0.6,1.6,1.1,1.6,1.7
		c0,0.7-0.3,1.4-1,1.9c-0.7,0.6-1.5,0.9-2.5,1c-3.1,0.5-6.3,0.8-9.5,1s-6.4,0.4-9.7,0.5c0.4,2.3,0.7,4.6,1,6.8
		c0.3,2.3,0.5,4.5,0.7,6.7c0.1,0.9,0.1,1.9-0.3,2.9c-0.3,1-0.9,1.5-1.6,1.5c-0.7,0-1.3-0.2-1.9-0.5c-0.6-0.3-1.1-0.7-1.6-1.1
		s-0.9-0.9-1.2-1.4s-0.5-1-0.6-1.4c-0.7-5.6-1.6-11.2-2.4-16.7c-0.9-5.5-1.8-11.1-2.9-16.7h-3.7c-1,0-2-0.1-2.9-0.3s-1.6-0.7-2-1.5
		c-0.2-0.2-0.2-0.5-0.3-1c0-0.5,0-0.9,0.1-1.4s0.3-0.9,0.6-1.3c0.3-0.4,0.7-0.7,1.2-0.8c2.9-0.4,6-0.6,9.4-0.5
		c3.3,0.1,6.6,0.2,9.8,0.5s6.2,0.7,9,1.2s5.2,1.1,7.2,1.7C646,593.3,646.7,594,646.8,594.9z"/>
	<path d="M660.8,637.2c-0.4,1.1-0.9,2.1-1.5,3c-0.6,0.9-1.2,1.4-1.9,1.5c-1.4,0.3-2.5,0.1-3.3-0.6c-0.7-0.7-1-1.6-0.9-2.7
		c0.6-3.9,1.6-8,2.9-12.4c1.3-4.3,2.9-8.7,4.7-13c1.8-4.3,3.8-8.6,5.9-12.6c2.1-4.1,4.3-7.8,6.6-11.1c0.4-0.5,0.8-0.8,1.3-0.9
		s0.9-0.1,1.3,0c0.4-0.3,0.8-0.5,1.3-0.7c0.5-0.2,1-0.3,1.6-0.3c0.2,0,0.5,0,0.7,0.1c0.3,0.1,0.5,0.3,0.8,0.6s0.7,0.8,1.1,1.4
		c0.4,0.6,0.9,1.5,1.5,2.7c1,3.3,2.3,6.8,3.6,10.3c1.4,3.5,2.8,7.1,4.3,10.6c0.2-0.1,0.4-0.1,0.6-0.1s0.4-0.1,0.6-0.1
		c0.8-0.1,1.8,0,2.8,0.1c1,0.1,1.8,0.6,2.1,1.4c0.4,1,0.4,1.8-0.2,2.5c-0.6,0.7-1.7,1.4-3.3,2.2c1,2.1,1.9,4.1,2.9,6.1s2,3.9,3,5.8
		c0.1,0.3,0.2,0.8,0.3,1.5c0.1,0.7,0.2,1.4,0.3,2.1c0,0.7,0,1.3-0.2,1.9c-0.2,0.6-0.4,1-0.9,1.2c-0.5,0.2-1.1,0.2-1.6-0.1
		c-0.6-0.3-1.1-0.6-1.6-1c-0.5-0.4-1-0.9-1.4-1.4c-0.4-0.5-0.7-0.9-1-1.3c-1.3-2.2-2.5-4.3-3.6-6.5c-1.2-2.2-2.3-4.4-3.3-6.6
		c-3.1,0.5-6.6,1-10.3,1.4c-3.7,0.4-7.4,0.7-11,0.8c-0.8,2.5-1.6,4.9-2.4,7.3C662.2,632.4,661.4,634.8,660.8,637.2z M676.7,596
		c-3.4,6.7-6.4,13.5-9,20.2c5-0.1,10.4-0.7,16.1-1.7C681.1,608.6,678.7,602.4,676.7,596z"/>
	<path d="M715.4,635.5c-0.2-2.4-0.4-5.2-0.5-8.2c-0.1-3.1-0.2-6.2-0.2-9.5c0-3.2,0-6.4,0.1-9.5c0-3.1,0.1-6,0.3-8.5
		c0-0.7,0.4-1.2,1.1-1.5c0.7-0.4,1.3-0.5,1.7-0.4c1.3,0.1,2.3,0.5,2.8,1.2s0.8,1.6,1,2.9c-0.1,2.1-0.1,4.2-0.2,6.3
		c0,2.1,0,4.2,0.1,6.3c3.4-0.5,6.2-1.6,8.5-3.2c2.3-1.6,3.9-3.5,4.9-5.6c0.4-0.8,0.7-1.7,0.8-2.8c0.2-1.1,0.2-2.2,0.1-3.4
		c-0.2-1.1-0.5-2.2-1.1-3.2c-0.6-1-1.4-1.8-2.5-2.4c-1.6-0.8-3.4-1.3-5.4-1.4c-1.9-0.1-4,0.2-6,0.7c-2.1,0.6-4.1,1.4-6.1,2.6
		c-2,1.2-3.8,2.6-5.6,4.2c0.2,1,0.1,1.8-0.4,2.6s-1.3,1.3-2.2,1.6c-0.6,0.1-1.3-0.1-2.1-0.8s-1.2-1.4-1.2-2.1c0-2.6,0.8-4.9,2.5-6.8
		c1.7-1.9,3.8-3.5,6.3-4.8s5.3-2.3,8.2-2.9c2.9-0.7,5.6-1,8.1-1c3.7,0,6.7,0.9,9.2,2.8c2.5,1.9,4.2,4.2,5.1,7
		c1.6,4.9,1.2,9.3-1.2,13.2c-2.4,3.9-6.2,7.3-11.5,10.2c3.9,2.1,7.5,4.1,11,6c3.4,1.9,6.8,4,10.3,6.2c0.4,0.4,1,1,1.5,1.7
		c0.6,0.8,0.5,1.9-0.3,3.4c-0.4,0.9-1.2,1.4-2.3,1.5c-1.1,0.1-2.2-0.2-3.2-0.8c-1.6-1.2-3.5-2.4-5.6-3.7c-2.1-1.3-4.2-2.5-6.5-3.8
		c-2.2-1.3-4.5-2.5-6.7-3.7c-2.2-1.2-4.4-2.3-6.4-3.4c0.1,2.6,0.1,5.2,0.2,7.8c0,2.6,0.1,5.1,0.3,7.6c0,0.9-0.3,1.6-0.9,1.9
		c-0.6,0.4-1.3,0.5-2.2,0.5c-0.4-0.1-0.9-0.3-1.2-0.6c-0.4-0.4-0.7-0.8-1.1-1.3c-0.4-0.5-0.6-1-0.8-1.5
		C715.9,636.4,715.4,635.8,715.4,635.5z"/>
	<path d="M814.2,640.7c-0.8,0-1.7-0.6-2.5-1.7c-0.9-1.1-1.3-2.2-1.4-3.2c-0.6-3.8-1.3-8.2-2.2-13.3c-0.9-5.1-2-11.1-3.4-18
		c-2.2,3.7-4.5,7.4-6.6,11.1c-2.2,3.7-4.3,7.3-6.5,11c-1.3,2.3-2.7,3.4-4.2,3.4c-2.1,0-3.7-0.9-4.9-2.8c-2.6-3.3-5.3-6.4-8.1-9.4
		c-2.8-2.9-5.7-5.8-8.7-8.7c-0.2,4.4-0.1,8.7,0.2,12.9c0.3,4.2,0.7,8.3,1.4,12.3c0.1,0.7,0.1,1.4-0.3,1.9c-0.3,0.6-0.7,0.9-1.1,1
		c-1,0.3-2.1,0.1-3.1-0.6s-1.7-1.5-1.9-2.4c-0.7-2.4-1.2-5-1.5-7.8c-0.3-2.9-0.5-5.8-0.6-8.7c-0.1-2.9-0.2-5.8-0.2-8.7
		c0-2.9,0-5.5,0.1-7.8c0-2.6,1-3.9,2.9-3.9c1.2,0,2.2,0.4,3,1.1c0.8,0.8,1.3,1.8,1.3,3.2c3.7,3.3,7.3,6.6,10.6,10
		c3.3,3.4,6.6,6.9,9.7,10.4c2.6-4.1,5.3-8.3,8-12.7c2.7-4.3,5.7-8.6,9.1-12.7c0.1-0.7,0.6-1.5,1.2-2.2c0.7-0.8,1.4-1.3,2.2-1.5
		c0.8-0.3,1.7,0,2.6,0.9c0.9,0.8,1.5,1.8,1.8,2.9c1.3,6.6,2.4,13.2,3.3,19.8c0.9,6.6,1.9,13.2,2.8,19.8c0.1,1.2-0.1,2.3-0.8,3.1
		C815.8,640.3,815,640.7,814.2,640.7z"/>
	<path d="M839.2,628.8c0.1,0.3,0.1,0.6,0.1,1.1s-0.1,1-0.3,1.5c-0.2,0.5-0.5,0.9-1,1.3c-0.4,0.4-1,0.5-1.7,0.5
		c-1.6-0.9-3-2.1-4.2-3.6c-0.6-2-1.1-4.2-1.6-6.8c-0.5-2.5-0.9-5.2-1.2-8c-0.3-2.8-0.5-5.6-0.6-8.5c-0.1-2.9-0.1-5.6-0.1-8.3
		c0-0.5,0.1-1,0.2-1.8c0.1-0.7,0.3-1.4,0.6-2.1c0.3-0.7,0.7-1.3,1.1-1.8c0.4-0.5,1.1-0.7,1.9-0.7c1,0,1.8,0.3,2.4,0.8
		c0.6,0.5,0.9,1.4,0.9,2.5c-0.1,2.6-0.1,5.4,0.1,8.4c0.1,3,0.3,6,0.6,9c0.3,3,0.7,5.9,1.2,8.8C838.1,623.9,838.6,626.5,839.2,628.8z
		"/>
	<path d="M893,597c-0.5,5.6-1.1,11.2-1.9,17c-0.7,5.8-1.7,11.2-2.9,16.3c-0.3,1.2-0.7,2.1-1.2,2.6s-1.3,0.9-2.2,1.1
		c-0.8,0.1-2-0.1-3.4-0.7c-1.5-0.6-2.7-1.4-3.6-2.5c-1.3-1.5-2.6-3.1-4.1-4.9c-1.5-1.8-3-3.6-4.7-5.5c-1.7-1.9-3.4-3.7-5.3-5.5
		c-1.8-1.8-3.8-3.5-5.8-5.1c-0.2,4.3-0.4,8.6-0.6,12.8c-0.2,4.2-0.2,8.4,0,12.7c0,0.6-0.6,0.9-1.8,0.9c-1.4,0-2.6-0.6-3.5-1.9
		c-0.9-1.3-1.4-2.6-1.6-3.9c-0.2-1.3-0.3-3.2-0.3-5.6c0-2.4,0.1-5,0.2-7.7c0.1-2.7,0.2-5.3,0.4-7.7c0.1-2.5,0.3-4.4,0.4-5.9
		c0.1-1.6,0.6-2.7,1.3-3.4c0.7-0.7,1.4-1,2.1-1c1.5,0.1,2.5,0.5,3,1.1c0.5,0.6,0.8,1.4,0.8,2.3c2.7,1.7,5.2,3.5,7.5,5.5s4.4,4,6.3,6
		c1.9,2,3.7,4,5.3,6s3.1,3.8,4.5,5.4c0.9-3.9,1.6-8.3,2.2-13.1c0.6-4.8,1.1-9.9,1.7-15.2c-0.1-0.7,0.4-1.3,1.3-1.9
		c1-0.6,1.9-0.9,2.7-0.8C892,594.4,893,595.3,893,597z"/>
	<path d="M920.8,611.2c-0.4,0-0.8,0-1.4-0.1c-0.6-0.1-1.1-0.3-1.6-0.5s-0.9-0.5-1.3-0.9c-0.4-0.4-0.6-0.7-0.6-1.1
		c0-0.5,0.4-1.2,1.1-1.9c0.7-0.7,1.9-1.3,3.5-1.7c2.2-0.5,4.6-0.7,7.1-0.8c2.5-0.1,4.9-0.1,7.4,0c2.5,0.1,4.9,0.2,7.3,0.4
		s4.6,0.3,6.7,0.3c1.2,0,2,0.2,2.4,0.6c0.4,0.4,0.6,0.8,0.6,1.4c0,1.2-0.6,2.1-1.8,2.7c-1.2,0.7-2.4,0.9-3.6,0.9
		c-1.3-0.1-2.6-0.1-4-0.1c-1.4,0-2.8,0-4.3,0c0,1.8,0.1,3.9,0.3,6.1c0.2,2.3,0.4,4.5,0.6,6.8c0.2,2.3,0.5,4.5,0.7,6.6
		c0.3,2.1,0.5,3.9,0.7,5.3c0.1,0.5,0,1-0.4,1.4c-0.4,0.4-1,0.6-1.9,0.6c-1.6,0-2.7-0.8-3.5-2.5c-1.4-3.2-2.4-6.9-3-11
		c-4,2.2-8,3.5-11.9,4c-3.9,0.5-7.4,0.4-10.5-0.3c-3.1-0.8-5.6-2.1-7.5-3.9c-1.9-1.9-2.9-4.1-2.9-6.8c0-2.5,0.5-5.3,1.6-8.2
		c1-2.9,2.5-5.8,4.5-8.5c1.9-2.7,4.2-5.2,6.9-7.5c2.7-2.3,5.6-4,8.9-5.1c1.1-0.3,2.2-0.3,3.2-0.1c1,0.2,1.9,0.5,2.8,1
		c0.9,0.5,1.6,1.1,2.4,1.8c0.7,0.7,1.3,1.4,1.9,2c0.4,0.5,0.6,0.9,0.7,1.5c0.1,0.5-0.2,1-0.7,1.5c-1.1,0.7-2.1,0.7-2.9-0.2
		c-1.3-1.4-2.3-2.2-3.2-2.5c-0.9-0.3-2,0-3.5,0.8c-1.5,0.9-3.1,2.3-4.9,4.2c-1.8,1.9-3.5,3.9-5,6.2s-2.8,4.6-3.6,7
		c-0.9,2.4-1.2,4.6-0.9,6.6c0.2,1.8,1.3,3,3.4,3.8c2,0.8,4.3,1.1,6.9,1c2.6-0.1,5.2-0.5,7.7-1.3c2.5-0.8,4.6-1.8,6-3.1
		c-0.1-1.1-0.2-2.2-0.2-3.4c-0.1-1.1-0.1-2.3-0.1-3.4c-1.6,0.1-3.3,0.2-4.9,0.3C924.2,610.9,922.5,611,920.8,611.2z"/>
</g>
<path d="M900.6,484.9c0,0-27.8-13.4-45.1-17.3c-17.4-3.8-27.6,12.9-27.6,12.9l-3.5,12c1.6,0.5,3.2,1,4.9,1.6
	c31.3,10.1,59.4,21.7,79.7,32.3c1-2.3,2.2-5.3,3.7-9.3C920.2,497.7,900.6,484.9,900.6,484.9z M864.1,492.9c-0.4,0.9-1.5,1.3-2.4,0.9
	l-13.6-6c-0.9-0.4-1.3-1.5-0.9-2.4c0.4-0.9,1.5-1.3,2.4-0.9l13.6,6C864.1,490.9,864.5,492,864.1,492.9z M890,507.1
	c-0.4,0.9-1.5,1.3-2.4,0.9l-9.5-4.2c-0.9-0.4-1.3-1.5-0.9-2.4c0.4-0.9,1.5-1.3,2.4-0.9l9.5,4.2C890,505.1,890.4,506.2,890,507.1z"/>
<path d="M938.6,546.4c-13.3-14-56.7-35-109.1-51.9c-52.4-16.9-56.5-5.9-56.5-5.9s-9,3.1,28.4,28.8c37.4,25.7,106.2,47.5,125.7,48.4
	C946.5,566.7,951.9,560.4,938.6,546.4z M861.8,536.3c-24-9.9-39.6-15.7-40.9-25.6c0,0,1.8-7.2,27.9,3c26.1,10.2,46.6,19.5,49.5,25.2
	C901.1,544.7,885.8,546.2,861.8,536.3z M916.5,546.7c-0.4,0.7-1.3,1-2,0.5l-5.2-3c-0.7-0.4-1-1.3-0.5-2c0.4-0.7,1.3-1,2-0.5l5.2,3
	C916.7,545,916.9,546,916.5,546.7z"/>
<g>
	<g>
		<g>
			<path class="st3" d="M56.3,53.5c-0.2,0.6-1,1.2-2.2,2c-1.3,0.7-2.4,1.1-3.2,1.1c-4.6-0.4-9.2-0.7-13.7-1S28,55.1,23.3,55
				c0.6,3.3,1.3,6.5,1.8,9.8c0.6,3.3,1.1,6.5,1.7,9.8c9.1-0.3,18.1-0.7,26.9-1.3c1.5,0,3,0.4,4.5,1.3c1.5,0.8,2.2,1.6,2.2,2.4
				c0,1-0.5,1.9-1.4,2.7c-1,0.8-2.1,1.3-3.5,1.5c-4.5,0.7-9,1.1-13.5,1.5c-4.5,0.3-9.2,0.6-13.9,0.8c0.5,3.3,1,6.5,1.4,9.7
				s0.7,6.4,1,9.6c0.2,1.3,0.1,2.7-0.4,4.1c-0.5,1.4-1.3,2.2-2.3,2.2s-1.9-0.2-2.7-0.7c-0.9-0.5-1.6-1-2.3-1.6s-1.3-1.3-1.7-2
				s-0.7-1.4-0.8-2c-1.1-8-2.2-16-3.4-23.9S14.3,63,12.8,55H7.5c-1.5,0-2.9-0.1-4.2-0.4s-2.2-1-2.9-2.1c-0.2-0.3-0.3-0.7-0.4-1.4
				c-0.1-0.7,0-1.3,0.2-2s0.5-1.3,0.9-1.8c0.4-0.6,1-0.9,1.8-1.1c4.2-0.6,8.6-0.8,13.4-0.7c4.8,0.1,9.4,0.3,13.9,0.8
				c4.5,0.4,8.8,1,12.8,1.7s7.5,1.5,10.3,2.4C55.1,51.3,56.1,52.3,56.3,53.5z"/>
			<path class="st3" d="M87.7,101.9c0.1,0.4,0.2,0.9,0.2,1.6s-0.2,1.4-0.5,2.1s-0.8,1.3-1.4,1.8s-1.4,0.8-2.5,0.8
				c-2.4-1.3-4.3-3-5.9-5.2c-0.9-2.8-1.6-6-2.3-9.6C74.6,89.8,74,86,73.6,82c-0.4-4-0.7-8-0.9-12.1c-0.2-4.1-0.2-8.1-0.1-11.9
				c0-0.7,0.1-1.5,0.2-2.5c0.2-1,0.5-2,0.9-3s1-1.8,1.6-2.5s1.5-1,2.7-1c1.4,0,2.5,0.4,3.4,1.1s1.3,2,1.3,3.6
				c-0.1,3.7-0.1,7.7,0.1,11.9c0.2,4.2,0.5,8.5,0.9,12.8s1,8.5,1.7,12.5C86.1,95,86.9,98.6,87.7,101.9z"/>
			<path class="st3" d="M164.7,56.6c-0.7,7.9-1.6,16-2.6,24.2s-2.4,16-4.1,23.3c-0.4,1.8-1,3-1.8,3.8c-0.7,0.7-1.8,1.3-3.2,1.5
				c-1.2,0.2-2.8-0.1-4.9-1c-2.1-0.8-3.8-2-5.2-3.6c-1.8-2.1-3.8-4.5-5.8-7.1c-2.1-2.6-4.3-5.2-6.7-7.8s-4.9-5.3-7.5-7.9
				s-5.4-5-8.3-7.3c-0.3,6.1-0.6,12.2-0.8,18.2c-0.2,6-0.2,12,0,18.1c0,0.8-0.9,1.3-2.6,1.3c-2,0-3.7-0.9-5-2.7s-2-3.7-2.2-5.5
				c-0.3-1.9-0.5-4.5-0.5-8s0.1-7.1,0.2-11c0.2-3.8,0.3-7.5,0.6-11c0.2-3.5,0.4-6.3,0.6-8.4c0.2-2.2,0.8-3.9,1.8-4.9s2-1.5,3-1.4
				c2.1,0.2,3.6,0.7,4.2,1.6c0.7,0.9,1.1,2,1.2,3.3c3.8,2.4,7.4,5,10.7,7.8c3.3,2.8,6.2,5.6,9,8.5c2.7,2.9,5.2,5.8,7.5,8.6
				c2.3,2.8,4.5,5.4,6.5,7.8c1.3-5.6,2.3-11.8,3.1-18.7c0.8-6.9,1.6-14.1,2.5-21.7c-0.1-0.9,0.5-1.8,1.9-2.7
				c1.4-0.9,2.7-1.3,3.8-1.2C163.2,52.9,164.7,54.2,164.7,56.6z"/>
			<path class="st3" d="M224,79.1c0.4,0.9,0,1.8-1.3,2.7c-1.3,0.9-3.3,1.5-6.1,1.7c-4.8,0.6-9.7,1.1-14.7,1.7s-10.2,1.2-15.4,1.9
				c-0.2,4.8-0.2,9.5,0,14.3c2.5,0,5.4-0.2,8.9-0.6c3.5-0.4,7-1,10.7-1.6c3.6-0.7,7.1-1.3,10.5-2s6.2-1.3,8.6-1.7
				c1.2-0.3,2.4-0.5,3.7-0.6c1.3-0.1,2.4-0.1,3.4,0s1.8,0.5,2.5,1s1,1.4,1,2.4c0,0.3-0.4,0.7-1.1,1.3s-1.7,1.1-2.8,1.7
				c-1.1,0.6-2.3,1.2-3.5,1.7s-2.3,0.9-3.3,1.2c-6.6,1.9-13.1,3.5-19.6,4.8c-6.4,1.4-12.7,2.1-18.7,2.2c-3.5,0.1-6.2-0.7-8-2.4
				s-2.8-4.2-2.9-7.5c-0.2-4.6-0.2-9.2,0-13.8c-1.8-0.9-2.7-2.2-2.7-3.9c0.2-1.8,1.2-3,2.9-3.6c0.2-2.7,0.4-5.4,0.5-8.2
				c0.1-2.7,0.3-5.5,0.5-8.2c-1.2-0.2-2.2-0.7-3.1-1.5s-1.4-1.8-1.4-2.8c0-0.8,0.2-1.6,0.6-2.3c0.4-0.7,1.2-1.2,2.4-1.6
				c1.9-0.4,4.3-0.8,7.1-1.3c2.8-0.5,5.6-0.9,8.6-1.3c2.9-0.4,5.8-0.7,8.5-1s5-0.5,7-0.6c2.2-0.2,4.4,0,6.5,0.6s4,1.6,5.8,3.2
				c0.4,1.3,0.1,2.3-0.9,2.9c-1,0.7-2.3,1.1-3.9,1.3c-1.6,0.2-3.5,0.4-5.8,0.6c-2.2,0.2-4.6,0.5-7,0.8s-4.8,0.5-7.2,0.8
				c-2.4,0.2-4.7,0.5-6.8,0.8c0,0.2,0,0.4,0.1,0.6s0.1,0.4,0.1,0.6c-0.2,2.4-0.4,4.8-0.5,7.3c-0.1,2.4-0.2,4.8-0.3,7.3
				c4.5-0.7,9.1-1.2,13.8-1.7c4.7-0.5,8.4-0.9,11.2-1c2.2-0.2,4.4,0,6.6,0.7C220.3,76.4,222.2,77.5,224,79.1z"/>
		</g>
	</g>
	<g>
		<path class="st3" d="M47.5,127.9c-0.2,0.4-0.7,0.8-1.6,1.4c-0.9,0.5-1.6,0.8-2.2,0.8c-3.2-0.3-6.4-0.5-9.6-0.7
			c-3.2-0.2-6.4-0.3-9.7-0.4c0.4,2.3,0.9,4.6,1.3,6.9c0.4,2.3,0.8,4.6,1.2,6.9c6.4-0.2,12.7-0.5,18.9-0.9c1,0,2.1,0.3,3.1,0.9
			c1,0.6,1.6,1.1,1.6,1.7c0,0.7-0.3,1.4-1,1.9c-0.7,0.6-1.5,0.9-2.5,1c-3.1,0.5-6.3,0.8-9.5,1s-6.4,0.4-9.7,0.5
			c0.4,2.3,0.7,4.6,1,6.8c0.3,2.3,0.5,4.5,0.7,6.7c0.1,0.9,0.1,1.9-0.3,2.9c-0.3,1-0.9,1.5-1.6,1.5c-0.7,0-1.3-0.2-1.9-0.5
			c-0.6-0.3-1.1-0.7-1.6-1.1c-0.5-0.4-0.9-0.9-1.2-1.4s-0.5-1-0.6-1.4c-0.7-5.6-1.6-11.2-2.4-16.7c-0.9-5.5-1.8-11.1-2.9-16.7h-3.7
			c-1,0-2-0.1-2.9-0.3s-1.6-0.7-2-1.5c-0.2-0.2-0.2-0.5-0.3-1c0-0.5,0-0.9,0.1-1.4s0.3-0.9,0.6-1.3c0.3-0.4,0.7-0.7,1.2-0.8
			c2.9-0.4,6-0.6,9.4-0.5c3.3,0.1,6.6,0.2,9.8,0.5s6.2,0.7,9,1.2s5.2,1.1,7.2,1.7C46.7,126.3,47.4,127,47.5,127.9z"/>
		<path class="st3" d="M61.5,170.2c-0.4,1.1-0.9,2.1-1.5,3s-1.2,1.4-1.9,1.5c-1.4,0.3-2.5,0.1-3.3-0.6c-0.7-0.7-1-1.6-0.9-2.7
			c0.6-3.9,1.6-8,2.9-12.4c1.3-4.3,2.9-8.7,4.7-13s3.8-8.6,5.9-12.6c2.1-4.1,4.3-7.8,6.6-11.1c0.4-0.5,0.8-0.8,1.3-0.9
			c0.5-0.1,0.9-0.1,1.3,0c0.4-0.3,0.8-0.5,1.3-0.7s1-0.3,1.6-0.3c0.2,0,0.5,0,0.7,0.1c0.3,0.1,0.5,0.3,0.8,0.6s0.7,0.8,1.1,1.4
			c0.4,0.6,0.9,1.5,1.5,2.7c1,3.3,2.3,6.8,3.6,10.3c1.4,3.5,2.8,7.1,4.3,10.6c0.2-0.1,0.4-0.1,0.6-0.1s0.4-0.1,0.6-0.1
			c0.8-0.1,1.8,0,2.8,0.1s1.8,0.6,2.1,1.4c0.4,1,0.4,1.8-0.2,2.5s-1.7,1.4-3.3,2.2c1,2.1,1.9,4.1,2.9,6.1s2,3.9,3,5.8
			c0.1,0.3,0.2,0.8,0.3,1.5c0.1,0.7,0.2,1.4,0.3,2.1c0,0.7,0,1.3-0.2,1.9c-0.2,0.6-0.4,1-0.9,1.2s-1.1,0.2-1.6-0.1
			c-0.6-0.3-1.1-0.6-1.6-1s-1-0.9-1.4-1.4s-0.7-0.9-1-1.3c-1.3-2.2-2.5-4.3-3.6-6.5c-1.2-2.2-2.3-4.4-3.3-6.6
			c-3.1,0.5-6.6,1-10.3,1.4c-3.7,0.4-7.4,0.7-11,0.8c-0.8,2.5-1.6,4.9-2.4,7.3C62.9,165.4,62.1,167.8,61.5,170.2z M77.4,129
			c-3.4,6.7-6.4,13.5-9,20.2c5-0.1,10.4-0.7,16.1-1.7C81.8,141.6,79.4,135.4,77.4,129z"/>
		<path class="st3" d="M116.1,168.5c-0.2-2.4-0.4-5.2-0.5-8.2c-0.1-3.1-0.2-6.2-0.2-9.5c0-3.2,0-6.4,0.1-9.5c0-3.1,0.1-6,0.3-8.5
			c0-0.7,0.4-1.2,1.1-1.5c0.7-0.4,1.3-0.5,1.7-0.4c1.3,0.1,2.3,0.5,2.8,1.2s0.8,1.6,1,2.9c-0.1,2.1-0.1,4.2-0.2,6.3
			c0,2.1,0,4.2,0.1,6.3c3.4-0.5,6.2-1.6,8.5-3.2c2.3-1.6,3.9-3.5,4.9-5.6c0.4-0.8,0.7-1.7,0.8-2.8c0.2-1.1,0.2-2.2,0.1-3.4
			c-0.2-1.1-0.5-2.2-1.1-3.2s-1.4-1.8-2.5-2.4c-1.6-0.8-3.4-1.3-5.4-1.4c-1.9-0.1-4,0.2-6,0.7c-2.1,0.6-4.1,1.4-6.1,2.6
			c-2,1.2-3.8,2.6-5.6,4.2c0.2,1,0.1,1.8-0.4,2.6s-1.3,1.3-2.2,1.6c-0.6,0.1-1.3-0.1-2.1-0.8c-0.8-0.7-1.2-1.4-1.2-2.1
			c0-2.6,0.8-4.9,2.5-6.8c1.7-1.9,3.8-3.5,6.3-4.8s5.3-2.3,8.2-2.9c2.9-0.7,5.6-1,8.1-1c3.7,0,6.7,0.9,9.2,2.8
			c2.5,1.9,4.2,4.2,5.1,7c1.6,4.9,1.2,9.3-1.2,13.2c-2.4,3.9-6.2,7.3-11.5,10.2c3.9,2.1,7.5,4.1,11,6c3.4,1.9,6.8,4,10.3,6.2
			c0.4,0.4,1,1,1.5,1.7c0.6,0.8,0.5,1.9-0.3,3.4c-0.4,0.9-1.2,1.4-2.3,1.5c-1.1,0.1-2.2-0.2-3.2-0.8c-1.6-1.2-3.5-2.4-5.6-3.7
			s-4.2-2.5-6.5-3.8c-2.2-1.3-4.5-2.5-6.7-3.7c-2.2-1.2-4.4-2.3-6.4-3.4c0.1,2.6,0.1,5.2,0.2,7.8c0,2.6,0.1,5.1,0.3,7.6
			c0,0.9-0.3,1.6-0.9,1.9c-0.6,0.4-1.3,0.5-2.2,0.5c-0.4-0.1-0.9-0.3-1.2-0.6c-0.4-0.4-0.7-0.8-1.1-1.3s-0.6-1-0.8-1.5
			S116.1,168.8,116.1,168.5z"/>
		<path class="st3" d="M214.9,173.7c-0.8,0-1.7-0.6-2.5-1.7c-0.9-1.1-1.3-2.2-1.4-3.2c-0.6-3.8-1.3-8.2-2.2-13.3
			c-0.9-5.1-2-11.1-3.4-18c-2.2,3.7-4.5,7.4-6.6,11.1c-2.2,3.7-4.3,7.3-6.5,11c-1.3,2.3-2.7,3.4-4.2,3.4c-2.1,0-3.7-0.9-4.9-2.8
			c-2.6-3.3-5.3-6.4-8.1-9.4c-2.8-2.9-5.7-5.8-8.7-8.7c-0.2,4.4-0.1,8.7,0.2,12.9c0.3,4.2,0.7,8.3,1.4,12.3c0.1,0.7,0.1,1.4-0.3,1.9
			c-0.3,0.6-0.7,0.9-1.1,1c-1,0.3-2.1,0.1-3.1-0.6c-1-0.7-1.7-1.5-1.9-2.4c-0.7-2.4-1.2-5-1.5-7.8c-0.3-2.9-0.5-5.8-0.6-8.7
			s-0.2-5.8-0.2-8.7s0-5.5,0.1-7.8c0-2.6,1-3.9,2.9-3.9c1.2,0,2.2,0.4,3,1.1c0.8,0.8,1.3,1.8,1.3,3.2c3.7,3.3,7.3,6.6,10.6,10
			c3.3,3.4,6.6,6.9,9.7,10.4c2.6-4.1,5.3-8.3,8-12.7c2.7-4.3,5.7-8.6,9.1-12.7c0.1-0.7,0.6-1.5,1.2-2.2c0.7-0.8,1.4-1.3,2.2-1.5
			c0.8-0.3,1.7,0,2.6,0.9c0.9,0.8,1.5,1.8,1.8,2.9c1.3,6.6,2.4,13.2,3.3,19.8s1.9,13.2,2.8,19.8c0.1,1.2-0.1,2.3-0.8,3.1
			C216.5,173.3,215.7,173.7,214.9,173.7z"/>
		<path class="st3" d="M239.9,161.8c0.1,0.3,0.1,0.6,0.1,1.1s-0.1,1-0.3,1.5c-0.2,0.5-0.5,0.9-1,1.3c-0.4,0.4-1,0.5-1.7,0.5
			c-1.6-0.9-3-2.1-4.2-3.6c-0.6-2-1.1-4.2-1.6-6.8c-0.5-2.5-0.9-5.2-1.2-8c-0.3-2.8-0.5-5.6-0.6-8.5s-0.1-5.6-0.1-8.3
			c0-0.5,0.1-1,0.2-1.8c0.1-0.7,0.3-1.4,0.6-2.1c0.3-0.7,0.7-1.3,1.1-1.8s1.1-0.7,1.9-0.7c1,0,1.8,0.3,2.4,0.8s0.9,1.4,0.9,2.5
			c-0.1,2.6-0.1,5.4,0.1,8.4c0.1,3,0.3,6,0.6,9c0.3,3,0.7,5.9,1.2,8.8C238.8,156.9,239.3,159.5,239.9,161.8z"/>
		<path class="st3" d="M293.7,130c-0.5,5.6-1.1,11.2-1.9,17c-0.7,5.8-1.7,11.2-2.9,16.3c-0.3,1.2-0.7,2.1-1.2,2.6s-1.3,0.9-2.2,1.1
			c-0.8,0.1-2-0.1-3.4-0.7c-1.5-0.6-2.7-1.4-3.6-2.5c-1.3-1.5-2.6-3.1-4.1-4.9c-1.5-1.8-3-3.6-4.7-5.5s-3.4-3.7-5.3-5.5
			c-1.8-1.8-3.8-3.5-5.8-5.1c-0.2,4.3-0.4,8.6-0.6,12.8s-0.2,8.4,0,12.7c0,0.6-0.6,0.9-1.8,0.9c-1.4,0-2.6-0.6-3.5-1.9
			c-0.9-1.3-1.4-2.6-1.6-3.9c-0.2-1.3-0.3-3.2-0.3-5.6c0-2.4,0.1-5,0.2-7.7s0.2-5.3,0.4-7.7c0.1-2.5,0.3-4.4,0.4-5.9
			c0.1-1.6,0.6-2.7,1.3-3.4c0.7-0.7,1.4-1,2.1-1c1.5,0.1,2.5,0.5,3,1.1s0.8,1.4,0.8,2.3c2.7,1.7,5.2,3.5,7.5,5.5s4.4,4,6.3,6
			s3.7,4,5.3,6c1.6,2,3.1,3.8,4.5,5.4c0.9-3.9,1.6-8.3,2.2-13.1s1.1-9.9,1.7-15.2c-0.1-0.7,0.4-1.3,1.3-1.9c1-0.6,1.9-0.9,2.7-0.8
			C292.7,127.4,293.7,128.3,293.7,130z"/>
		<path class="st3" d="M321.5,144.2c-0.4,0-0.8,0-1.4-0.1s-1.1-0.3-1.6-0.5s-0.9-0.5-1.3-0.9s-0.6-0.7-0.6-1.1
			c0-0.5,0.4-1.2,1.1-1.9s1.9-1.3,3.5-1.7c2.2-0.5,4.6-0.7,7.1-0.8s4.9-0.1,7.4,0s4.9,0.2,7.3,0.4c2.4,0.2,4.6,0.3,6.7,0.3
			c1.2,0,2,0.2,2.4,0.6c0.4,0.4,0.6,0.8,0.6,1.4c0,1.2-0.6,2.1-1.8,2.7c-1.2,0.7-2.4,0.9-3.6,0.9c-1.3-0.1-2.6-0.1-4-0.1
			s-2.8,0-4.3,0c0,1.8,0.1,3.9,0.3,6.1c0.2,2.3,0.4,4.5,0.6,6.8c0.2,2.3,0.5,4.5,0.7,6.6c0.3,2.1,0.5,3.9,0.7,5.3
			c0.1,0.5,0,1-0.4,1.4s-1,0.6-1.9,0.6c-1.6,0-2.7-0.8-3.5-2.5c-1.4-3.2-2.4-6.9-3-11c-4,2.2-8,3.5-11.9,4
			c-3.9,0.5-7.4,0.4-10.5-0.3c-3.1-0.8-5.6-2.1-7.5-3.9c-1.9-1.9-2.9-4.1-2.9-6.8c0-2.5,0.5-5.3,1.6-8.2c1-2.9,2.5-5.8,4.5-8.5
			c1.9-2.7,4.2-5.2,6.9-7.5c2.7-2.3,5.6-4,8.9-5.1c1.1-0.3,2.2-0.3,3.2-0.1s1.9,0.5,2.8,1s1.6,1.1,2.4,1.8c0.7,0.7,1.3,1.4,1.9,2
			c0.4,0.5,0.6,0.9,0.7,1.5c0.1,0.5-0.2,1-0.7,1.5c-1.1,0.7-2.1,0.7-2.9-0.2c-1.3-1.4-2.3-2.2-3.2-2.5s-2,0-3.5,0.8
			c-1.5,0.9-3.1,2.3-4.9,4.2s-3.5,3.9-5,6.2s-2.8,4.6-3.6,7c-0.9,2.4-1.2,4.6-0.9,6.6c0.2,1.8,1.3,3,3.4,3.8c2,0.8,4.3,1.1,6.9,1
			s5.2-0.5,7.7-1.3c2.5-0.8,4.6-1.8,6-3.1c-0.1-1.1-0.2-2.2-0.2-3.4c-0.1-1.1-0.1-2.3-0.1-3.4c-1.6,0.1-3.3,0.2-4.9,0.3
			C324.9,143.9,323.2,144,321.5,144.2z"/>
	</g>
	<path class="st3" d="M301.3,17.9c0,0-27.8-13.4-45.1-17.3c-17.4-3.8-27.6,12.9-27.6,12.9l-3.5,12c1.6,0.5,3.2,1,4.9,1.6
		c31.3,10.1,59.4,21.7,79.7,32.3c1-2.3,2.2-5.3,3.7-9.3C320.9,30.7,301.3,17.9,301.3,17.9z M264.8,25.9c-0.4,0.9-1.5,1.3-2.4,0.9
		l-13.6-6c-0.9-0.4-1.3-1.5-0.9-2.4s1.5-1.3,2.4-0.9l13.6,6C264.8,23.9,265.2,25,264.8,25.9z M290.7,40.1c-0.4,0.9-1.5,1.3-2.4,0.9
		l-9.5-4.2c-0.9-0.4-1.3-1.5-0.9-2.4s1.5-1.3,2.4-0.9l9.5,4.2C290.7,38.1,291.1,39.2,290.7,40.1z"/>
	<path class="st3" d="M339.3,79.4c-13.3-14-56.7-35-109.1-51.9s-56.5-5.9-56.5-5.9s-9,3.1,28.4,28.8s106.2,47.5,125.7,48.4
		C347.2,99.7,352.6,93.4,339.3,79.4z M262.5,69.3c-24-9.9-39.6-15.7-40.9-25.6c0,0,1.8-7.2,27.9,3s46.6,19.5,49.5,25.2
		C301.8,77.7,286.5,79.2,262.5,69.3z M317.2,79.7c-0.4,0.7-1.3,1-2,0.5l-5.2-3c-0.7-0.4-1-1.3-0.5-2c0.4-0.7,1.3-1,2-0.5l5.2,3
		C317.4,78,317.6,79,317.2,79.7z"/>
</g>
<circle cx="1280.3" cy="536.7" r="100.5"/>
<g>
	<path class="st4" d="M1314,511.2c0,0-22.4-10.8-36.5-14c-14.1-3.1-22.3,10.4-22.3,10.4l-2.8,9.7c1.3,0.4,2.6,0.8,4,1.3
		c25.3,8.2,48,17.5,64.5,26.1c0.8-1.8,1.8-4.3,3-7.5C1329.8,521.5,1314,511.2,1314,511.2z M1284.5,517.7c-0.3,0.7-1.2,1.1-1.9,0.7
		l-11-4.9c-0.8-0.3-1.1-1.2-0.8-1.9c0.3-0.7,1.2-1.1,1.9-0.7l11,4.9C1284.5,516.1,1284.8,516.9,1284.5,517.7z M1305.4,529.1
		c-0.3,0.7-1.2,1.1-1.9,0.7l-7.7-3.4c-0.7-0.3-1.1-1.2-0.7-1.9c0.3-0.7,1.2-1.1,1.9-0.7l7.7,3.4
		C1305.4,527.5,1305.8,528.4,1305.4,529.1z"/>
	<path class="st4" d="M1344.7,560.9c-10.7-11.3-45.9-28.3-88.2-42c-42.3-13.7-45.7-4.8-45.7-4.8s-7.2,2.5,22.9,23.3
		s85.9,38.4,101.6,39.2C1351.1,577.3,1355.4,572.2,1344.7,560.9z M1282.6,552.8c-19.4-8-32.1-12.7-33.1-20.7c0,0,1.4-5.8,22.6,2.5
		c21.1,8.3,37.7,15.8,40,20.4C1314.4,559.6,1302,560.8,1282.6,552.8z M1326.8,561.1c-0.3,0.6-1.1,0.8-1.7,0.4l-4.2-2.4
		c-0.6-0.3-0.8-1.1-0.4-1.7c0.3-0.6,1.1-0.8,1.7-0.4l4.2,2.4C1327,559.8,1327.2,560.6,1326.8,561.1z"/>
</g>
</svg>
