<?xml version="1.0" encoding="UTF-8"?>
<svg id="_레이어_2" data-name="레이어 2" xmlns="http://www.w3.org/2000/svg" viewBox="0 0 352.74 174.8">
  <defs>
    <style>
      .cls-1 {
        fill: #17a34a;
        stroke-width: 0px;
      }
    </style>
  </defs>
  <g id="_레이어_1-2" data-name="레이어 1">
    <g>
      <g>
        <path class="cls-1" d="m56.34,53.46c-.2.6-1,1.2-2.2,2-1.3.7-2.4,1.1-3.2,1.1-4.6-.4-9.2-.7-13.7-1s-9.2-.5-13.9-.6c.6,3.3,1.3,6.5,1.8,9.8.6,3.3,1.1,6.5,1.7,9.8,9.1-.3,18.1-.7,26.9-1.3,1.5,0,3,.4,4.5,1.3,1.5.8,2.2,1.6,2.2,2.4,0,1-.5,1.9-1.4,2.7-1,.8-2.1,1.3-3.5,1.5-4.5.7-9,1.1-13.5,1.5-4.5.3-9.2.6-13.9.8.5,3.3,1,6.5,1.4,9.7s.7,6.4,1,9.6c.2,1.3.1,2.7-.4,4.1-.5,1.4-1.3,2.2-2.3,2.2s-1.9-.2-2.7-.7c-.9-.5-1.6-1-2.3-1.6s-1.3-1.3-1.7-2-.7-1.4-.8-2c-1.1-8-2.2-16-3.4-23.9s-2.6-15.9-4.1-23.9h-5.3c-1.5,0-2.9-.1-4.2-.4s-2.2-1-2.9-2.1c-.2-.3-.3-.7-.4-1.4-.1-.7,0-1.3.2-2s.5-1.3.9-1.8c.4-.6,1-.9,1.8-1.1,4.2-.6,8.6-.8,13.4-.7,4.8.1,9.4.3,13.9.8,4.5.4,8.8,1,12.8,1.7s7.5,1.5,10.3,2.4c1.8.9,2.8,1.9,3,3.1Z"/>
        <path class="cls-1" d="m87.74,101.86c.1.4.2.9.2,1.6s-.2,1.4-.5,2.1-.8,1.3-1.4,1.8-1.4.8-2.5.8c-2.4-1.3-4.3-3-5.9-5.2-.9-2.8-1.6-6-2.3-9.6-.7-3.6-1.3-7.4-1.7-11.4-.4-4-.7-8-.9-12.1-.2-4.1-.2-8.1-.1-11.9,0-.7.1-1.5.2-2.5.2-1,.5-2,.9-3s1-1.8,1.6-2.5,1.5-1,2.7-1c1.4,0,2.5.4,3.4,1.1s1.3,2,1.3,3.6c-.1,3.7-.1,7.7.1,11.9.2,4.2.5,8.5.9,12.8s1,8.5,1.7,12.5c.7,4.1,1.5,7.7,2.3,11Z"/>
        <path class="cls-1" d="m164.74,56.56c-.7,7.9-1.6,16-2.6,24.2-1,8.2-2.4,16-4.1,23.3-.4,1.8-1,3-1.8,3.8-.7.7-1.8,1.3-3.2,1.5-1.2.2-2.8-.1-4.9-1-2.1-.8-3.8-2-5.2-3.6-1.8-2.1-3.8-4.5-5.8-7.1-2.1-2.6-4.3-5.2-6.7-7.8s-4.9-5.3-7.5-7.9-5.4-5-8.3-7.3c-.3,6.1-.6,12.2-.8,18.2-.2,6-.2,12,0,18.1,0,.8-.9,1.3-2.6,1.3-2,0-3.7-.9-5-2.7s-2-3.7-2.2-5.5c-.3-1.9-.5-4.5-.5-8s.1-7.1.2-11c.2-3.8.3-7.5.6-11,.2-3.5.4-6.3.6-8.4.2-2.2.8-3.9,1.8-4.9s2-1.5,3-1.4c2.1.2,3.6.7,4.2,1.6.7.9,1.1,2,1.2,3.3,3.8,2.4,7.4,5,10.7,7.8,3.3,2.8,6.2,5.6,9,8.5,2.7,2.9,5.2,5.8,7.5,8.6,2.3,2.8,4.5,5.4,6.5,7.8,1.3-5.6,2.3-11.8,3.1-18.7.8-6.9,1.6-14.1,2.5-21.7-.1-.9.5-1.8,1.9-2.7,1.4-.9,2.7-1.3,3.8-1.2,3.1.2,4.6,1.5,4.6,3.9Z"/>
        <path class="cls-1" d="m224.04,79.06c.4.9,0,1.8-1.3,2.7-1.3.9-3.3,1.5-6.1,1.7-4.8.6-9.7,1.1-14.7,1.7s-10.2,1.2-15.4,1.9c-.2,4.8-.2,9.5,0,14.3,2.5,0,5.4-.2,8.9-.6,3.5-.4,7-1,10.7-1.6,3.6-.7,7.1-1.3,10.5-2s6.2-1.3,8.6-1.7c1.2-.3,2.4-.5,3.7-.6,1.3-.1,2.4-.1,3.4,0s1.8.5,2.5,1,1,1.4,1,2.4c0,.3-.4.7-1.1,1.3s-1.7,1.1-2.8,1.7c-1.1.6-2.3,1.2-3.5,1.7s-2.3.9-3.3,1.2c-6.6,1.9-13.1,3.5-19.6,4.8-6.4,1.4-12.7,2.1-18.7,2.2-3.5.1-6.2-.7-8-2.4s-2.8-4.2-2.9-7.5c-.2-4.6-.2-9.2,0-13.8-1.8-.9-2.7-2.2-2.7-3.9.2-1.8,1.2-3,2.9-3.6.2-2.7.4-5.4.5-8.2.1-2.7.3-5.5.5-8.2-1.2-.2-2.2-.7-3.1-1.5s-1.4-1.8-1.4-2.8c0-.8.2-1.6.6-2.3.4-.7,1.2-1.2,2.4-1.6,1.9-.4,4.3-.8,7.1-1.3,2.8-.5,5.6-.9,8.6-1.3,2.9-.4,5.8-.7,8.5-1s5-.5,7-.6c2.2-.2,4.4,0,6.5.6s4,1.6,5.8,3.2c.4,1.3.1,2.3-.9,2.9-1,.7-2.3,1.1-3.9,1.3-1.6.2-3.5.4-5.8.6-2.2.2-4.6.5-7,.8s-4.8.5-7.2.8c-2.4.2-4.7.5-6.8.8,0,.2,0,.4.1.6s.1.4.1.6c-.2,2.4-.4,4.8-.5,7.3-.1,2.4-.2,4.8-.3,7.3,4.5-.7,9.1-1.2,13.8-1.7,4.7-.5,8.4-.9,11.2-1,2.2-.2,4.4,0,6.6.7,1.8.4,3.7,1.5,5.5,3.1Z"/>
      </g>
      <g>
        <path class="cls-1" d="m47.54,127.86c-.2.4-.7.8-1.6,1.4-.9.5-1.6.8-2.2.8-3.2-.3-6.4-.5-9.6-.7-3.2-.2-6.4-.3-9.7-.4.4,2.3.9,4.6,1.3,6.9.4,2.3.8,4.6,1.2,6.9,6.4-.2,12.7-.5,18.9-.9,1,0,2.1.3,3.1.9,1,.6,1.6,1.1,1.6,1.7,0,.7-.3,1.4-1,1.9-.7.6-1.5.9-2.5,1-3.1.5-6.3.8-9.5,1s-6.4.4-9.7.5c.4,2.3.7,4.6,1,6.8.3,2.3.5,4.5.7,6.7.1.9.1,1.9-.3,2.9-.3,1-.9,1.5-1.6,1.5s-1.3-.2-1.9-.5c-.6-.3-1.1-.7-1.6-1.1-.5-.4-.9-.9-1.2-1.4s-.5-1-.6-1.4c-.7-5.6-1.6-11.2-2.4-16.7-.9-5.5-1.8-11.1-2.9-16.7h-3.7c-1,0-2-.1-2.9-.3s-1.6-.7-2-1.5c-.2-.2-.2-.5-.3-1,0-.5,0-.9.1-1.4s.3-.9.6-1.3c.3-.4.7-.7,1.2-.8,2.9-.4,6-.6,9.4-.5,3.3.1,6.6.2,9.8.5s6.2.7,9,1.2,5.2,1.1,7.2,1.7c1.3.7,2,1.4,2.1,2.3Z"/>
        <path class="cls-1" d="m61.54,170.16c-.4,1.1-.9,2.1-1.5,3s-1.2,1.4-1.9,1.5c-1.4.3-2.5.1-3.3-.6-.7-.7-1-1.6-.9-2.7.6-3.9,1.6-8,2.9-12.4,1.3-4.3,2.9-8.7,4.7-13s3.8-8.6,5.9-12.6c2.1-4.1,4.3-7.8,6.6-11.1.4-.5.8-.8,1.3-.9.5-.1.9-.1,1.3,0,.4-.3.8-.5,1.3-.7s1-.3,1.6-.3c.2,0,.5,0,.7.1.3.1.5.3.8.6s.7.8,1.1,1.4c.4.6.9,1.5,1.5,2.7,1,3.3,2.3,6.8,3.6,10.3,1.4,3.5,2.8,7.1,4.3,10.6.2-.1.4-.1.6-.1s.4-.1.6-.1c.8-.1,1.8,0,2.8.1s1.8.6,2.1,1.4c.4,1,.4,1.8-.2,2.5s-1.7,1.4-3.3,2.2c1,2.1,1.9,4.1,2.9,6.1s2,3.9,3,5.8c.1.3.2.8.3,1.5.1.7.2,1.4.3,2.1,0,.7,0,1.3-.2,1.9-.2.6-.4,1-.9,1.2s-1.1.2-1.6-.1c-.6-.3-1.1-.6-1.6-1s-1-.9-1.4-1.4-.7-.9-1-1.3c-1.3-2.2-2.5-4.3-3.6-6.5-1.2-2.2-2.3-4.4-3.3-6.6-3.1.5-6.6,1-10.3,1.4-3.7.4-7.4.7-11,.8-.8,2.5-1.6,4.9-2.4,7.3-.4,2.1-1.2,4.5-1.8,6.9Zm15.9-41.2c-3.4,6.7-6.4,13.5-9,20.2,5-.1,10.4-.7,16.1-1.7-2.7-5.9-5.1-12.1-7.1-18.5Z"/>
        <path class="cls-1" d="m116.14,168.46c-.2-2.4-.4-5.2-.5-8.2-.1-3.1-.2-6.2-.2-9.5s0-6.4.1-9.5c0-3.1.1-6,.3-8.5,0-.7.4-1.2,1.1-1.5.7-.4,1.3-.5,1.7-.4,1.3.1,2.3.5,2.8,1.2s.8,1.6,1,2.9c-.1,2.1-.1,4.2-.2,6.3,0,2.1,0,4.2.1,6.3,3.4-.5,6.2-1.6,8.5-3.2,2.3-1.6,3.9-3.5,4.9-5.6.4-.8.7-1.7.8-2.8.2-1.1.2-2.2.1-3.4-.2-1.1-.5-2.2-1.1-3.2s-1.4-1.8-2.5-2.4c-1.6-.8-3.4-1.3-5.4-1.4-1.9-.1-4,.2-6,.7-2.1.6-4.1,1.4-6.1,2.6-2,1.2-3.8,2.6-5.6,4.2.2,1,.1,1.8-.4,2.6s-1.3,1.3-2.2,1.6c-.6.1-1.3-.1-2.1-.8-.8-.7-1.2-1.4-1.2-2.1,0-2.6.8-4.9,2.5-6.8,1.7-1.9,3.8-3.5,6.3-4.8s5.3-2.3,8.2-2.9c2.9-.7,5.6-1,8.1-1,3.7,0,6.7.9,9.2,2.8,2.5,1.9,4.2,4.2,5.1,7,1.6,4.9,1.2,9.3-1.2,13.2-2.4,3.9-6.2,7.3-11.5,10.2,3.9,2.1,7.5,4.1,11,6,3.4,1.9,6.8,4,10.3,6.2.4.4,1,1,1.5,1.7.6.8.5,1.9-.3,3.4-.4.9-1.2,1.4-2.3,1.5-1.1.1-2.2-.2-3.2-.8-1.6-1.2-3.5-2.4-5.6-3.7s-4.2-2.5-6.5-3.8c-2.2-1.3-4.5-2.5-6.7-3.7s-4.4-2.3-6.4-3.4c.1,2.6.1,5.2.2,7.8,0,2.6.1,5.1.3,7.6,0,.9-.3,1.6-.9,1.9-.6.4-1.3.5-2.2.5-.4-.1-.9-.3-1.2-.6-.4-.4-.7-.8-1.1-1.3s-.6-1-.8-1.5-.7-1.1-.7-1.4Z"/>
        <path class="cls-1" d="m214.94,173.66c-.8,0-1.7-.6-2.5-1.7-.9-1.1-1.3-2.2-1.4-3.2-.6-3.8-1.3-8.2-2.2-13.3-.9-5.1-2-11.1-3.4-18-2.2,3.7-4.5,7.4-6.6,11.1-2.2,3.7-4.3,7.3-6.5,11-1.3,2.3-2.7,3.4-4.2,3.4-2.1,0-3.7-.9-4.9-2.8-2.6-3.3-5.3-6.4-8.1-9.4-2.8-2.9-5.7-5.8-8.7-8.7-.2,4.4-.1,8.7.2,12.9.3,4.2.7,8.3,1.4,12.3.1.7.1,1.4-.3,1.9-.3.6-.7.9-1.1,1-1,.3-2.1.1-3.1-.6-1-.7-1.7-1.5-1.9-2.4-.7-2.4-1.2-5-1.5-7.8-.3-2.9-.5-5.8-.6-8.7s-.2-5.8-.2-8.7,0-5.5.1-7.8c0-2.6,1-3.9,2.9-3.9,1.2,0,2.2.4,3,1.1.8.8,1.3,1.8,1.3,3.2,3.7,3.3,7.3,6.6,10.6,10,3.3,3.4,6.6,6.9,9.7,10.4,2.6-4.1,5.3-8.3,8-12.7,2.7-4.3,5.7-8.6,9.1-12.7.1-.7.6-1.5,1.2-2.2.7-.8,1.4-1.3,2.2-1.5.8-.3,1.7,0,2.6.9.9.8,1.5,1.8,1.8,2.9,1.3,6.6,2.4,13.2,3.3,19.8s1.9,13.2,2.8,19.8c.1,1.2-.1,2.3-.8,3.1-.6.9-1.4,1.3-2.2,1.3Z"/>
        <path class="cls-1" d="m239.94,161.76c.1.3.1.6.1,1.1s-.1,1-.3,1.5c-.2.5-.5.9-1,1.3-.4.4-1,.5-1.7.5-1.6-.9-3-2.1-4.2-3.6-.6-2-1.1-4.2-1.6-6.8-.5-2.5-.9-5.2-1.2-8-.3-2.8-.5-5.6-.6-8.5s-.1-5.6-.1-8.3c0-.5.1-1,.2-1.8.1-.7.3-1.4.6-2.1.3-.7.7-1.3,1.1-1.8s1.1-.7,1.9-.7c1,0,1.8.3,2.4.8s.9,1.4.9,2.5c-.1,2.6-.1,5.4.1,8.4.1,3,.3,6,.6,9,.3,3,.7,5.9,1.2,8.8.5,2.8,1,5.4,1.6,7.7Z"/>
        <path class="cls-1" d="m293.74,129.96c-.5,5.6-1.1,11.2-1.9,17-.7,5.8-1.7,11.2-2.9,16.3-.3,1.2-.7,2.1-1.2,2.6s-1.3.9-2.2,1.1c-.8.1-2-.1-3.4-.7-1.5-.6-2.7-1.4-3.6-2.5-1.3-1.5-2.6-3.1-4.1-4.9-1.5-1.8-3-3.6-4.7-5.5s-3.4-3.7-5.3-5.5c-1.8-1.8-3.8-3.5-5.8-5.1-.2,4.3-.4,8.6-.6,12.8s-.2,8.4,0,12.7c0,.6-.6.9-1.8.9-1.4,0-2.6-.6-3.5-1.9-.9-1.3-1.4-2.6-1.6-3.9-.2-1.3-.3-3.2-.3-5.6s.1-5,.2-7.7.2-5.3.4-7.7c.1-2.5.3-4.4.4-5.9.1-1.6.6-2.7,1.3-3.4.7-.7,1.4-1,2.1-1,1.5.1,2.5.5,3,1.1s.8,1.4.8,2.3c2.7,1.7,5.2,3.5,7.5,5.5s4.4,4,6.3,6,3.7,4,5.3,6c1.6,2,3.1,3.8,4.5,5.4.9-3.9,1.6-8.3,2.2-13.1s1.1-9.9,1.7-15.2c-.1-.7.4-1.3,1.3-1.9,1-.6,1.9-.9,2.7-.8,2.2,0,3.2.9,3.2,2.6Z"/>
        <path class="cls-1" d="m321.54,144.16c-.4,0-.8,0-1.4-.1s-1.1-.3-1.6-.5-.9-.5-1.3-.9-.6-.7-.6-1.1c0-.5.4-1.2,1.1-1.9s1.9-1.3,3.5-1.7c2.2-.5,4.6-.7,7.1-.8s4.9-.1,7.4,0,4.9.2,7.3.4c2.4.2,4.6.3,6.7.3,1.2,0,2,.2,2.4.6.4.4.6.8.6,1.4,0,1.2-.6,2.1-1.8,2.7-1.2.7-2.4.9-3.6.9-1.3-.1-2.6-.1-4-.1h-4.3c0,1.8.1,3.9.3,6.1.2,2.3.4,4.5.6,6.8.2,2.3.5,4.5.7,6.6.3,2.1.5,3.9.7,5.3.1.5,0,1-.4,1.4s-1,.6-1.9.6c-1.6,0-2.7-.8-3.5-2.5-1.4-3.2-2.4-6.9-3-11-4,2.2-8,3.5-11.9,4-3.9.5-7.4.4-10.5-.3-3.1-.8-5.6-2.1-7.5-3.9-1.9-1.9-2.9-4.1-2.9-6.8,0-2.5.5-5.3,1.6-8.2,1-2.9,2.5-5.8,4.5-8.5,1.9-2.7,4.2-5.2,6.9-7.5,2.7-2.3,5.6-4,8.9-5.1,1.1-.3,2.2-.3,3.2-.1,1,.2,1.9.5,2.8,1,.9.5,1.6,1.1,2.4,1.8.7.7,1.3,1.4,1.9,2,.4.5.6.9.7,1.5.1.5-.2,1-.7,1.5-1.1.7-2.1.7-2.9-.2-1.3-1.4-2.3-2.2-3.2-2.5s-2,0-3.5.8c-1.5.9-3.1,2.3-4.9,4.2s-3.5,3.9-5,6.2-2.8,4.6-3.6,7c-.9,2.4-1.2,4.6-.9,6.6.2,1.8,1.3,3,3.4,3.8,2,.8,4.3,1.1,6.9,1s5.2-.5,7.7-1.3,4.6-1.8,6-3.1c-.1-1.1-.2-2.2-.2-3.4-.1-1.1-.1-2.3-.1-3.4-1.6.1-3.3.2-4.9.3-1.8-.2-3.5-.1-5.2.1Z"/>
      </g>
      <path class="cls-1" d="m301.34,17.86s-27.8-13.4-45.1-17.3c-17.4-3.8-27.6,12.9-27.6,12.9l-3.5,12c1.6.5,3.2,1,4.9,1.6,31.3,10.1,59.4,21.7,79.7,32.3,1-2.3,2.2-5.3,3.7-9.3,7.5-19.4-12.1-32.2-12.1-32.2Zm-36.5,8c-.4.9-1.5,1.3-2.4.9l-13.6-6c-.9-.4-1.3-1.5-.9-2.4s1.5-1.3,2.4-.9l13.6,6c.9.4,1.3,1.5.9,2.4Zm25.9,14.2c-.4.9-1.5,1.3-2.4.9l-9.5-4.2c-.9-.4-1.3-1.5-.9-2.4s1.5-1.3,2.4-.9l9.5,4.2c.9.4,1.3,1.5.9,2.4Z"/>
      <path class="cls-1" d="m339.34,79.36c-13.3-14-56.7-35-109.1-51.9s-56.5-5.9-56.5-5.9c0,0-9,3.1,28.4,28.8s106.2,47.5,125.7,48.4c19.4.9,24.8-5.4,11.5-19.4Zm-76.8-10.1c-24-9.9-39.6-15.7-40.9-25.6,0,0,1.8-7.2,27.9,3s46.6,19.5,49.5,25.2c2.8,5.8-12.5,7.3-36.5-2.6Zm54.7,10.4c-.4.7-1.3,1-2,.5l-5.2-3c-.7-.4-1-1.3-.5-2,.4-.7,1.3-1,2-.5l5.2,3c.7.3.9,1.3.5,2Z"/>
    </g>
  </g>
</svg>