<?xml version="1.0" encoding="utf-8"?>
<!-- Generator: Adobe Illustrator 27.9.1, SVG Export Plug-In . SVG Version: 6.00 Build 0)  -->
<svg version="1.1" id="레이어_1" xmlns="http://www.w3.org/2000/svg" xmlns:xlink="http://www.w3.org/1999/xlink" x="0px"
	 y="0px" viewBox="0 0 352.7 176.8" style="enable-background:new 0 0 352.7 176.8;" xml:space="preserve">
<style type="text/css">
	.st0{fill:none;stroke:#000000;stroke-width:3;stroke-miterlimit:10;}
	.st1{fill:none;stroke:#000000;stroke-width:4;stroke-miterlimit:10;}
	.st2{fill:none;stroke:#000000;stroke-width:4;stroke-linecap:round;stroke-linejoin:round;stroke-miterlimit:10;}
</style>
<g>
	<g>
		<g>
			<path d="M56.3,55.5c-0.2,0.6-1,1.2-2.2,2c-1.3,0.7-2.4,1.1-3.2,1.1c-4.6-0.4-9.2-0.7-13.7-1c-4.5-0.3-9.2-0.5-13.9-0.6
				c0.6,3.3,1.3,6.5,1.8,9.8c0.6,3.3,1.1,6.5,1.7,9.8c9.1-0.3,18.1-0.7,26.9-1.3c1.5,0,3,0.4,4.5,1.3c1.5,0.8,2.2,1.6,2.2,2.4
				c0,1-0.5,1.9-1.4,2.7c-1,0.8-2.1,1.3-3.5,1.5c-4.5,0.7-9,1.1-13.5,1.5c-4.5,0.3-9.2,0.6-13.9,0.8c0.5,3.3,1,6.5,1.4,9.7
				c0.4,3.2,0.7,6.4,1,9.6c0.2,1.3,0.1,2.7-0.4,4.1c-0.5,1.4-1.3,2.2-2.3,2.2c-1,0-1.9-0.2-2.7-0.7c-0.9-0.5-1.6-1-2.3-1.6
				c-0.7-0.6-1.3-1.3-1.7-2c-0.4-0.7-0.7-1.4-0.8-2c-1.1-8-2.2-16-3.4-23.9c-1.2-7.9-2.6-15.9-4.1-23.9H7.5c-1.5,0-2.9-0.1-4.2-0.4
				c-1.3-0.3-2.2-1-2.9-2.1C0.2,54.1,0.1,53.7,0,53c-0.1-0.7,0-1.3,0.2-2c0.2-0.7,0.5-1.3,0.9-1.8c0.4-0.6,1-0.9,1.8-1.1
				c4.2-0.6,8.6-0.8,13.4-0.7c4.8,0.1,9.4,0.3,13.9,0.8c4.5,0.4,8.8,1,12.8,1.7c4,0.7,7.5,1.5,10.3,2.4
				C55.1,53.2,56.1,54.3,56.3,55.5z"/>
			<path d="M87.8,103.9c0.1,0.4,0.2,0.9,0.2,1.6s-0.2,1.4-0.5,2.1s-0.8,1.3-1.4,1.8c-0.6,0.5-1.4,0.8-2.5,0.8
				c-2.4-1.3-4.3-3-5.9-5.2c-0.9-2.8-1.6-6-2.3-9.6c-0.7-3.6-1.3-7.4-1.7-11.4c-0.4-4-0.7-8-0.9-12.1c-0.2-4.1-0.2-8.1-0.1-11.9
				c0-0.7,0.1-1.5,0.2-2.5c0.2-1,0.5-2,0.9-3c0.4-1,1-1.8,1.6-2.5c0.6-0.7,1.5-1,2.7-1c1.4,0,2.5,0.4,3.4,1.1c0.9,0.7,1.3,2,1.3,3.6
				c-0.1,3.7-0.1,7.7,0.1,11.9c0.2,4.2,0.5,8.5,0.9,12.8c0.4,4.3,1,8.5,1.7,12.5C86.1,97,86.9,100.6,87.8,103.9z"/>
			<path d="M164.7,58.6c-0.7,7.9-1.6,16-2.6,24.2c-1,8.2-2.4,16-4.1,23.3c-0.4,1.8-1,3-1.8,3.8c-0.7,0.7-1.8,1.3-3.2,1.5
				c-1.2,0.2-2.8-0.1-4.9-1c-2.1-0.8-3.8-2-5.2-3.6c-1.8-2.1-3.8-4.5-5.8-7.1c-2.1-2.6-4.3-5.2-6.7-7.8s-4.9-5.3-7.5-7.9
				c-2.6-2.6-5.4-5-8.3-7.3c-0.3,6.1-0.6,12.2-0.8,18.2c-0.2,6-0.2,12,0,18.1c0,0.8-0.9,1.3-2.6,1.3c-2,0-3.7-0.9-5-2.7
				c-1.3-1.8-2-3.7-2.2-5.5c-0.3-1.9-0.5-4.5-0.5-8s0.1-7.1,0.2-11c0.2-3.8,0.3-7.5,0.6-11c0.2-3.5,0.4-6.3,0.6-8.4
				c0.2-2.2,0.8-3.9,1.8-4.9c1-1,2-1.5,3-1.4c2.1,0.2,3.6,0.7,4.2,1.6c0.7,0.9,1.1,2,1.2,3.3c3.8,2.4,7.4,5,10.7,7.8
				c3.3,2.8,6.2,5.6,9,8.5c2.7,2.9,5.2,5.8,7.5,8.6c2.3,2.8,4.5,5.4,6.5,7.8c1.3-5.6,2.3-11.8,3.1-18.7c0.8-6.9,1.6-14.1,2.5-21.7
				c-0.1-0.9,0.5-1.8,1.9-2.7c1.4-0.9,2.7-1.3,3.8-1.2C163.2,54.9,164.7,56.2,164.7,58.6z"/>
			<path d="M224,81.1c0.4,0.9,0,1.8-1.3,2.7c-1.3,0.9-3.3,1.5-6.1,1.7c-4.8,0.6-9.7,1.1-14.7,1.7c-5,0.6-10.2,1.2-15.4,1.9
				c-0.2,4.8-0.2,9.5,0,14.3c2.5,0,5.4-0.2,8.9-0.6c3.5-0.4,7-1,10.7-1.6c3.6-0.7,7.1-1.3,10.5-2s6.2-1.3,8.6-1.7
				c1.2-0.3,2.4-0.5,3.7-0.6c1.3-0.1,2.4-0.1,3.4,0c1,0.1,1.8,0.5,2.5,1s1,1.4,1,2.4c0,0.3-0.4,0.7-1.1,1.3
				c-0.7,0.6-1.7,1.1-2.8,1.7c-1.1,0.6-2.3,1.2-3.5,1.7c-1.2,0.5-2.3,0.9-3.3,1.2c-6.6,1.9-13.1,3.5-19.6,4.8
				c-6.4,1.4-12.7,2.1-18.7,2.2c-3.5,0.1-6.2-0.7-8-2.4c-1.8-1.7-2.8-4.2-2.9-7.5c-0.2-4.6-0.2-9.2,0-13.8c-1.8-0.9-2.7-2.2-2.7-3.9
				c0.2-1.8,1.2-3,2.9-3.6c0.2-2.7,0.4-5.4,0.5-8.2c0.1-2.7,0.3-5.5,0.5-8.2c-1.2-0.2-2.2-0.7-3.1-1.5c-0.9-0.8-1.4-1.8-1.4-2.8
				c0-0.8,0.2-1.6,0.6-2.3c0.4-0.7,1.2-1.2,2.4-1.6c1.9-0.4,4.3-0.8,7.1-1.3c2.8-0.5,5.6-0.9,8.6-1.3c2.9-0.4,5.8-0.7,8.5-1
				c2.7-0.3,5-0.5,7-0.6c2.2-0.2,4.4,0,6.5,0.6c2.1,0.6,4,1.6,5.8,3.2c0.4,1.3,0.1,2.3-0.9,2.9c-1,0.7-2.3,1.1-3.9,1.3
				c-1.6,0.2-3.5,0.4-5.8,0.6c-2.2,0.2-4.6,0.5-7,0.8c-2.4,0.3-4.8,0.5-7.2,0.8c-2.4,0.2-4.7,0.5-6.8,0.8c0,0.2,0,0.4,0.1,0.6
				c0.1,0.2,0.1,0.4,0.1,0.6c-0.2,2.4-0.4,4.8-0.5,7.3c-0.1,2.4-0.2,4.8-0.3,7.3c4.5-0.7,9.1-1.2,13.8-1.7c4.7-0.5,8.4-0.9,11.2-1
				c2.2-0.2,4.4,0,6.6,0.7C220.3,78.4,222.3,79.5,224,81.1z"/>
		</g>
	</g>
	<g>
		<path d="M47.6,129.9c-0.2,0.4-0.7,0.8-1.6,1.4c-0.9,0.5-1.6,0.8-2.2,0.8c-3.2-0.3-6.4-0.5-9.6-0.7c-3.2-0.2-6.4-0.3-9.7-0.4
			c0.4,2.3,0.9,4.6,1.3,6.9c0.4,2.3,0.8,4.6,1.2,6.9c6.4-0.2,12.7-0.5,18.9-0.9c1,0,2.1,0.3,3.1,0.9c1,0.6,1.6,1.1,1.6,1.7
			c0,0.7-0.3,1.4-1,1.9c-0.7,0.6-1.5,0.9-2.5,1c-3.1,0.5-6.3,0.8-9.5,1c-3.2,0.2-6.4,0.4-9.7,0.5c0.4,2.3,0.7,4.6,1,6.8
			c0.3,2.3,0.5,4.5,0.7,6.7c0.1,0.9,0.1,1.9-0.3,2.9c-0.3,1-0.9,1.5-1.6,1.5c-0.7,0-1.3-0.2-1.9-0.5c-0.6-0.3-1.1-0.7-1.6-1.1
			c-0.5-0.4-0.9-0.9-1.2-1.4c-0.3-0.5-0.5-1-0.6-1.4c-0.7-5.6-1.6-11.2-2.4-16.7c-0.9-5.5-1.8-11.1-2.9-16.7h-3.7
			c-1,0-2-0.1-2.9-0.3c-0.9-0.2-1.6-0.7-2-1.5c-0.2-0.2-0.2-0.5-0.3-1c0-0.5,0-0.9,0.1-1.4c0.1-0.5,0.3-0.9,0.6-1.3
			c0.3-0.4,0.7-0.7,1.2-0.8c2.9-0.4,6-0.6,9.4-0.5c3.3,0.1,6.6,0.2,9.8,0.5c3.2,0.3,6.2,0.7,9,1.2c2.8,0.5,5.2,1.1,7.2,1.7
			C46.7,128.3,47.4,129,47.6,129.9z"/>
		<path d="M61.5,172.2c-0.4,1.1-0.9,2.1-1.5,3c-0.6,0.9-1.2,1.4-1.9,1.5c-1.4,0.3-2.5,0.1-3.3-0.6c-0.7-0.7-1-1.6-0.9-2.7
			c0.6-3.9,1.6-8,2.9-12.4c1.3-4.3,2.9-8.7,4.7-13c1.8-4.3,3.8-8.6,5.9-12.6c2.1-4.1,4.3-7.8,6.6-11.1c0.4-0.5,0.8-0.8,1.3-0.9
			c0.5-0.1,0.9-0.1,1.3,0c0.4-0.3,0.8-0.5,1.3-0.7c0.5-0.2,1-0.3,1.6-0.3c0.2,0,0.5,0,0.7,0.1c0.3,0.1,0.5,0.3,0.8,0.6
			c0.3,0.3,0.7,0.8,1.1,1.4c0.4,0.6,0.9,1.5,1.5,2.7c1,3.3,2.3,6.8,3.6,10.3c1.4,3.5,2.8,7.1,4.3,10.6c0.2-0.1,0.4-0.1,0.6-0.1
			c0.2,0,0.4-0.1,0.6-0.1c0.8-0.1,1.8,0,2.8,0.1c1,0.1,1.8,0.6,2.1,1.4c0.4,1,0.4,1.8-0.2,2.5c-0.6,0.7-1.7,1.4-3.3,2.2
			c1,2.1,1.9,4.1,2.9,6.1c1,2,2,3.9,3,5.8c0.1,0.3,0.2,0.8,0.3,1.5c0.1,0.7,0.2,1.4,0.3,2.1c0,0.7,0,1.3-0.2,1.9
			c-0.2,0.6-0.4,1-0.9,1.2c-0.5,0.2-1.1,0.2-1.6-0.1c-0.6-0.3-1.1-0.6-1.6-1c-0.5-0.4-1-0.9-1.4-1.4c-0.4-0.5-0.7-0.9-1-1.3
			c-1.3-2.2-2.5-4.3-3.6-6.5c-1.2-2.2-2.3-4.4-3.3-6.6c-3.1,0.5-6.6,1-10.3,1.4c-3.7,0.4-7.4,0.7-11,0.8c-0.8,2.5-1.6,4.9-2.4,7.3
			C62.9,167.3,62.2,169.7,61.5,172.2z M77.4,131c-3.4,6.7-6.4,13.5-9,20.2c5-0.1,10.4-0.7,16.1-1.7C81.8,143.6,79.5,137.4,77.4,131z
			"/>
		<path d="M116.1,170.5c-0.2-2.4-0.4-5.2-0.5-8.2c-0.1-3.1-0.2-6.2-0.2-9.5c0-3.2,0-6.4,0.1-9.5c0-3.1,0.1-6,0.3-8.5
			c0-0.7,0.4-1.2,1.1-1.5c0.7-0.4,1.3-0.5,1.7-0.4c1.3,0.1,2.3,0.5,2.8,1.2c0.5,0.7,0.8,1.6,1,2.9c-0.1,2.1-0.1,4.2-0.2,6.3
			c0,2.1,0,4.2,0.1,6.3c3.4-0.5,6.2-1.6,8.5-3.2c2.3-1.6,3.9-3.5,4.9-5.6c0.4-0.8,0.7-1.7,0.8-2.8c0.2-1.1,0.2-2.2,0.1-3.4
			c-0.2-1.1-0.5-2.2-1.1-3.2c-0.6-1-1.4-1.8-2.5-2.4c-1.6-0.8-3.4-1.3-5.4-1.4c-1.9-0.1-4,0.2-6,0.7c-2.1,0.6-4.1,1.4-6.1,2.6
			c-2,1.2-3.8,2.6-5.6,4.2c0.2,1,0.1,1.8-0.4,2.6c-0.5,0.8-1.3,1.3-2.2,1.6c-0.6,0.1-1.3-0.1-2.1-0.8c-0.8-0.7-1.2-1.4-1.2-2.1
			c0-2.6,0.8-4.9,2.5-6.8c1.7-1.9,3.8-3.5,6.3-4.8c2.5-1.3,5.3-2.3,8.2-2.9c2.9-0.7,5.6-1,8.1-1c3.7,0,6.7,0.9,9.2,2.8
			c2.5,1.9,4.2,4.2,5.1,7c1.6,4.9,1.2,9.3-1.2,13.2c-2.4,3.9-6.2,7.3-11.5,10.2c3.9,2.1,7.5,4.1,11,6c3.4,1.9,6.8,4,10.3,6.2
			c0.4,0.4,1,1,1.5,1.7c0.6,0.8,0.5,1.9-0.3,3.4c-0.4,0.9-1.2,1.4-2.3,1.5c-1.1,0.1-2.2-0.2-3.2-0.8c-1.6-1.2-3.5-2.4-5.6-3.7
			c-2.1-1.3-4.2-2.5-6.5-3.8c-2.2-1.3-4.5-2.5-6.7-3.7c-2.2-1.2-4.4-2.3-6.4-3.4c0.1,2.6,0.1,5.2,0.2,7.8c0,2.6,0.1,5.1,0.3,7.6
			c0,0.9-0.3,1.6-0.9,1.9c-0.6,0.4-1.3,0.5-2.2,0.5c-0.4-0.1-0.9-0.3-1.2-0.6c-0.4-0.4-0.7-0.8-1.1-1.3s-0.6-1-0.8-1.5
			S116.1,170.8,116.1,170.5z"/>
		<path d="M214.9,175.7c-0.8,0-1.7-0.6-2.5-1.7c-0.9-1.1-1.3-2.2-1.4-3.2c-0.6-3.8-1.3-8.2-2.2-13.3c-0.9-5.1-2-11.1-3.4-18
			c-2.2,3.7-4.5,7.4-6.6,11.1c-2.2,3.7-4.3,7.3-6.5,11c-1.3,2.3-2.7,3.4-4.2,3.4c-2.1,0-3.7-0.9-4.9-2.8c-2.6-3.3-5.3-6.4-8.1-9.4
			c-2.8-2.9-5.7-5.8-8.7-8.7c-0.2,4.4-0.1,8.7,0.2,12.9c0.3,4.2,0.7,8.3,1.4,12.3c0.1,0.7,0.1,1.4-0.3,1.9c-0.3,0.6-0.7,0.9-1.1,1
			c-1,0.3-2.1,0.1-3.1-0.6c-1-0.7-1.7-1.5-1.9-2.4c-0.7-2.4-1.2-5-1.5-7.8c-0.3-2.9-0.5-5.8-0.6-8.7c-0.1-2.9-0.2-5.8-0.2-8.7
			c0-2.9,0-5.5,0.1-7.8c0-2.6,1-3.9,2.9-3.9c1.2,0,2.2,0.4,3,1.1c0.8,0.8,1.3,1.8,1.3,3.2c3.7,3.3,7.3,6.6,10.6,10
			c3.3,3.4,6.6,6.9,9.7,10.4c2.6-4.1,5.3-8.3,8-12.7c2.7-4.3,5.7-8.6,9.1-12.7c0.1-0.7,0.6-1.5,1.2-2.2c0.7-0.8,1.4-1.3,2.2-1.5
			c0.8-0.3,1.7,0,2.6,0.9c0.9,0.8,1.5,1.8,1.8,2.9c1.3,6.6,2.4,13.2,3.3,19.8c0.9,6.6,1.9,13.2,2.8,19.8c0.1,1.2-0.1,2.3-0.8,3.1
			C216.5,175.3,215.7,175.7,214.9,175.7z"/>
		<path d="M239.9,163.7c0.1,0.3,0.1,0.6,0.1,1.1s-0.1,1-0.3,1.5c-0.2,0.5-0.5,0.9-1,1.3c-0.4,0.4-1,0.5-1.7,0.5
			c-1.6-0.9-3-2.1-4.2-3.6c-0.6-2-1.1-4.2-1.6-6.8c-0.5-2.5-0.9-5.2-1.2-8c-0.3-2.8-0.5-5.6-0.6-8.5c-0.1-2.9-0.1-5.6-0.1-8.3
			c0-0.5,0.1-1,0.2-1.8c0.1-0.7,0.3-1.4,0.6-2.1c0.3-0.7,0.7-1.3,1.1-1.8s1.1-0.7,1.9-0.7c1,0,1.8,0.3,2.4,0.8
			c0.6,0.5,0.9,1.4,0.9,2.5c-0.1,2.6-0.1,5.4,0.1,8.4c0.1,3,0.3,6,0.6,9c0.3,3,0.7,5.9,1.2,8.8C238.8,158.9,239.3,161.5,239.9,163.7
			z"/>
		<path d="M293.7,132c-0.5,5.6-1.1,11.2-1.9,17c-0.7,5.8-1.7,11.2-2.9,16.3c-0.3,1.2-0.7,2.1-1.2,2.6c-0.5,0.5-1.3,0.9-2.2,1.1
			c-0.8,0.1-2-0.1-3.4-0.7c-1.5-0.6-2.7-1.4-3.6-2.5c-1.3-1.5-2.6-3.1-4.1-4.9c-1.5-1.8-3-3.6-4.7-5.5c-1.7-1.9-3.4-3.7-5.3-5.5
			c-1.8-1.8-3.8-3.5-5.8-5.1c-0.2,4.3-0.4,8.6-0.6,12.8c-0.2,4.2-0.2,8.4,0,12.7c0,0.6-0.6,0.9-1.8,0.9c-1.4,0-2.6-0.6-3.5-1.9
			c-0.9-1.3-1.4-2.6-1.6-3.9c-0.2-1.3-0.3-3.2-0.3-5.6c0-2.4,0.1-5,0.2-7.7c0.1-2.7,0.2-5.3,0.4-7.7c0.1-2.5,0.3-4.4,0.4-5.9
			c0.1-1.6,0.6-2.7,1.3-3.4c0.7-0.7,1.4-1,2.1-1c1.5,0.1,2.5,0.5,3,1.1c0.5,0.6,0.8,1.4,0.8,2.3c2.7,1.7,5.2,3.5,7.5,5.5
			c2.3,2,4.4,4,6.3,6c1.9,2,3.7,4,5.3,6c1.6,2,3.1,3.8,4.5,5.4c0.9-3.9,1.6-8.3,2.2-13.1c0.6-4.8,1.1-9.9,1.7-15.2
			c-0.1-0.7,0.4-1.3,1.3-1.9c1-0.6,1.9-0.9,2.7-0.8C292.7,129.4,293.7,130.3,293.7,132z"/>
		<path d="M321.5,146.2c-0.4,0-0.8,0-1.4-0.1s-1.1-0.3-1.6-0.5c-0.5-0.2-0.9-0.5-1.3-0.9c-0.4-0.4-0.6-0.7-0.6-1.1
			c0-0.5,0.4-1.2,1.1-1.9c0.7-0.7,1.9-1.3,3.5-1.7c2.2-0.5,4.6-0.7,7.1-0.8c2.5-0.1,4.9-0.1,7.4,0c2.5,0.1,4.9,0.2,7.3,0.4
			c2.4,0.2,4.6,0.3,6.7,0.3c1.2,0,2,0.2,2.4,0.6c0.4,0.4,0.6,0.8,0.6,1.4c0,1.2-0.6,2.1-1.8,2.7c-1.2,0.7-2.4,0.9-3.6,0.9
			c-1.3-0.1-2.6-0.1-4-0.1c-1.4,0-2.8,0-4.3,0c0,1.8,0.1,3.9,0.3,6.1c0.2,2.3,0.4,4.5,0.6,6.8c0.2,2.3,0.5,4.5,0.7,6.6
			c0.3,2.1,0.5,3.9,0.7,5.3c0.1,0.5,0,1-0.4,1.4c-0.4,0.4-1,0.6-1.9,0.6c-1.6,0-2.7-0.8-3.5-2.5c-1.4-3.2-2.4-6.9-3-11
			c-4,2.2-8,3.5-11.9,4c-3.9,0.5-7.4,0.4-10.5-0.3c-3.1-0.8-5.6-2.1-7.5-3.9c-1.9-1.9-2.9-4.1-2.9-6.8c0-2.5,0.5-5.3,1.6-8.2
			c1-2.9,2.5-5.8,4.5-8.5c1.9-2.7,4.2-5.2,6.9-7.5c2.7-2.3,5.6-4,8.9-5.1c1.1-0.3,2.2-0.3,3.2-0.1c1,0.2,1.9,0.5,2.8,1
			c0.9,0.5,1.6,1.1,2.4,1.8c0.7,0.7,1.3,1.4,1.9,2c0.4,0.5,0.6,0.9,0.7,1.5c0.1,0.5-0.2,1-0.7,1.5c-1.1,0.7-2.1,0.7-2.9-0.2
			c-1.3-1.4-2.3-2.2-3.2-2.5c-0.9-0.3-2,0-3.5,0.8c-1.5,0.9-3.1,2.3-4.9,4.2c-1.8,1.9-3.5,3.9-5,6.2c-1.5,2.3-2.8,4.6-3.6,7
			c-0.9,2.4-1.2,4.6-0.9,6.6c0.2,1.8,1.3,3,3.4,3.8c2,0.8,4.3,1.1,6.9,1c2.6-0.1,5.2-0.5,7.7-1.3s4.6-1.8,6-3.1
			c-0.1-1.1-0.2-2.2-0.2-3.4c-0.1-1.1-0.1-2.3-0.1-3.4c-1.6,0.1-3.3,0.2-4.9,0.3C324.9,145.9,323.2,146,321.5,146.2z"/>
	</g>
	<g>
		<path class="st0" d="M221.6,45.7c0,0,1.8-7.2,27.9,3S296.1,68.2,299,74c2.9,5.7-12.5,7.3-36.5-2.7S222.9,55.6,221.6,45.7z"/>
		<path class="st1" d="M225.1,27.5c1.6,0.5,3.2,1,4.9,1.6c31.3,10.1,59.4,21.7,79.7,32.3c1-2.3,2.2-5.3,3.7-9.3
			c7.4-19.3-12.2-32.2-12.2-32.2S273.5,6.4,256.2,2.6s-27.6,12.9-27.6,12.9L225.1,27.5z"/>
		<path class="st1" d="M173.7,23.5c0,0,4.1-11.1,56.5,5.9s95.9,37.9,109.1,51.9c13.3,14,7.9,20.3-11.6,19.4
			c-19.5-0.9-88.4-22.7-125.7-48.4S173.7,23.5,173.7,23.5z"/>
		<line class="st2" x1="251.2" y1="15.5" x2="264.1" y2="20.4"/>
		<line class="st2" x1="310.7" y1="73.9" x2="318.1" y2="77.2"/>
		<line class="st2" x1="280.2" y1="37" x2="287.6" y2="40.3"/>
	</g>
</g>
</svg>
