<svg width="28" height="30" viewBox="0 0 28 30" fill="none" xmlns="http://www.w3.org/2000/svg">
<path d="M14.0546 30C12.6018 30 11.3187 29.5074 10.2053 28.5222C9.09169 27.5372 8.46775 26.3571 8.33354 24.9817C7.04519 25.5292 5.70026 25.5843 4.29877 25.1469C2.89728 24.7095 1.82106 23.8694 1.07013 22.6267C0.313087 21.3881 0.0801515 20.025 0.37132 18.5373C0.662489 17.0496 1.40747 15.8759 2.60625 15.0161C1.44157 14.1732 0.709353 13.0294 0.409588 11.5845C0.109823 10.1396 0.312948 8.79788 1.01896 7.55933C1.72498 6.32079 2.78844 5.45083 4.20934 4.94946C5.62997 4.44781 6.98765 4.47075 8.28238 5.01828C8.41659 3.62151 9.04053 2.43594 10.1542 1.46156C11.2676 0.487187 12.5505 0 14.003 0C15.4558 0 16.7389 0.487187 17.8523 1.46156C18.9659 2.43594 19.5898 3.62151 19.7241 5.01828C21.0529 4.47075 22.4053 4.43488 23.7813 4.91067C25.157 5.38673 26.215 6.26962 26.9554 7.55933C27.6615 8.83208 27.8732 10.1781 27.5906 11.5974C27.3078 13.0167 26.5669 14.1563 25.3682 15.0161C26.5669 15.8759 27.3162 17.0411 27.616 18.5119C27.9157 19.9823 27.7126 21.3539 27.0066 22.6267C26.2557 23.9378 25.1976 24.795 23.8325 25.1982C22.4673 25.6014 21.1149 25.5292 19.7752 24.9817C19.641 26.3571 19.0171 27.5372 17.9034 28.5222C16.7901 29.5074 15.5071 30 14.0546 30Z" fill="#047647"/>
</svg>
